<svg xmlns="http://www.w3.org/2000/svg" width="1920" height="1080"> <rect width="100%" height="100%" fill="lightgray" />
        <polygon points="941.1927892814731,484.9098086326607 946.1927892814731,489.9098086326607 941.1927892814731,494.9098086326607 936.1927892814731,489.9098086326607" fill="#89E4F8" stroke="black" stroke-width="0.5"/>
        <polygon points="908.2972217008775,560.535072107316 913.2972217008775,565.535072107316 908.2972217008775,570.535072107316 903.2972217008775,565.535072107316" fill="#89E4F8" stroke="black" stroke-width="0.5"/>
        <polygon points="1019.295990099598,562.8505431051175 1024.295990099598,567.8505431051175 1019.295990099598,572.8505431051175 1014.295990099598,567.8505431051175" fill="#89E4F8" stroke="black" stroke-width="0.5"/>
        <polygon points="1042.2011494675837,572.8798848897331 1047.2011494675837,577.8798848897331 1042.2011494675837,582.8798848897331 1037.2011494675837,577.8798848897331" fill="#89E4F8" stroke="black" stroke-width="0.5"/>
        <polygon points="900.1113778174137,596.267055338039 905.1113778174137,601.267055338039 900.1113778174137,606.267055338039 895.1113778174137,601.267055338039" fill="#89E4F8" stroke="black" stroke-width="0.5"/>
        <polygon points="888.5825452643552,537.1380575048669 893.5825452643552,542.1380575048669 888.5825452643552,547.1380575048669 883.5825452643552,542.1380575048669" fill="#89E4F8" stroke="black" stroke-width="0.5"/>
      <line x1="951.4598281725908" y1="562.6144889329219" x2="961.4598281725908" y2="562.6144889329219" stroke="#89E4F8" stroke-width="2"/>
      <line x1="956.4598281725908" y1="557.6144889329219" x2="956.4598281725908" y2="567.6144889329219" stroke="#89E4F8" stroke-width="2"/>
        <polygon points="1534.5196665869491,298.1809939286192 1539.5196665869491,303.1809939286192 1534.5196665869491,308.1809939286192 1529.5196665869491,303.1809939286192" fill="#52CCE6" stroke="black" stroke-width="0.5"/>
        <polygon points="1672.8262561378651,215.31366732481732 1677.8262561378651,220.31366732481732 1672.8262561378651,225.31366732481732 1667.8262561378651,220.31366732481732" fill="#52CCE6" stroke="black" stroke-width="0.5"/>
        <polygon points="1127.3340851541695,397.19263744142813 1132.3340851541695,402.19263744142813 1127.3340851541695,407.19263744142813 1122.3340851541695,402.19263744142813" fill="#52CCE6" stroke="black" stroke-width="0.5"/>
        <polygon points="1053.7753417454105,243.86127678659903 1058.7753417454105,248.86127678659903 1053.7753417454105,253.86127678659903 1048.7753417454105,248.86127678659903" fill="#52CCE6" stroke="black" stroke-width="0.5"/>
        <polygon points="735.4069153349906,-5 740.4069153349906,0 735.4069153349906,5 730.4069153349906,0" fill="#52CCE6" stroke="black" stroke-width="0.5"/>
        <polygon points="1114.2259167747732,34.00569045209365 1119.2259167747732,39.00569045209365 1114.2259167747732,44.00569045209365 1109.2259167747732,39.00569045209365" fill="#52CCE6" stroke="black" stroke-width="0.5"/>
        <polygon points="1324.8424727288364,252.99602347500104 1329.8424727288364,257.99602347500104 1324.8424727288364,262.99602347500104 1319.8424727288364,257.99602347500104" fill="#52CCE6" stroke="black" stroke-width="0.5"/>
        <polygon points="1192.6328626373804,16.403192707761335 1197.6328626373804,21.403192707761335 1192.6328626373804,26.403192707761335 1187.6328626373804,21.403192707761335" fill="#52CCE6" stroke="black" stroke-width="0.5"/>
        <polygon points="1385.1141824840176,24.244529565414002 1390.1141824840176,29.244529565414002 1385.1141824840176,34.244529565414 1380.1141824840176,29.244529565414002" fill="#52CCE6" stroke="black" stroke-width="0.5"/>
        <polygon points="1106.1093278054202,287.32011467651387 1111.1093278054202,292.32011467651387 1106.1093278054202,297.32011467651387 1101.1093278054202,292.32011467651387" fill="#52CCE6" stroke="black" stroke-width="0.5"/>
        <polygon points="1443.494129968376,320.76600309282026 1448.494129968376,325.76600309282026 1443.494129968376,330.76600309282026 1438.494129968376,325.76600309282026" fill="#52CCE6" stroke="black" stroke-width="0.5"/>
        <polygon points="1448.1309568777185,249.71944753880638 1453.1309568777185,254.71944753880638 1448.1309568777185,259.7194475388064 1443.1309568777185,254.71944753880638" fill="#52CCE6" stroke="black" stroke-width="0.5"/>
        <polygon points="1359.3148596281644,316.49231013010046 1364.3148596281644,321.49231013010046 1359.3148596281644,326.49231013010046 1354.3148596281644,321.49231013010046" fill="#52CCE6" stroke="black" stroke-width="0.5"/>
        <polygon points="1453.1497554854416,188.23099701040925 1458.1497554854416,193.23099701040925 1453.1497554854416,198.23099701040925 1448.1497554854416,193.23099701040925" fill="#52CCE6" stroke="black" stroke-width="0.5"/>
        <polygon points="955.3083678889221,298.51025597933193 960.3083678889221,303.51025597933193 955.3083678889221,308.51025597933193 950.3083678889221,303.51025597933193" fill="#52CCE6" stroke="black" stroke-width="0.5"/>
        <polygon points="1249.9001701294424,266.43340915569854 1254.9001701294424,271.43340915569854 1249.9001701294424,276.43340915569854 1244.9001701294424,271.43340915569854" fill="#52CCE6" stroke="black" stroke-width="0.5"/>
        <polygon points="1322.9885918171283,222.13840773483412 1327.9885918171283,227.13840773483412 1322.9885918171283,232.13840773483412 1317.9885918171283,227.13840773483412" fill="#52CCE6" stroke="black" stroke-width="0.5"/>
      <line x1="1137.3081625940601" y1="346.75277800609837" x2="1147.3081625940601" y2="346.75277800609837" stroke="#52CCE6" stroke-width="2"/>
      <line x1="1142.3081625940601" y1="341.75277800609837" x2="1142.3081625940601" y2="351.75277800609837" stroke="#52CCE6" stroke-width="2"/>
        <polygon points="1467.3143301912635,446.6871939337203 1472.3143301912635,451.6871939337203 1467.3143301912635,456.6871939337203 1462.3143301912635,451.6871939337203" fill="#897BD1" stroke="black" stroke-width="0.5"/>
        <polygon points="1730.2850760953365,345.26084061887536 1735.2850760953365,350.26084061887536 1730.2850760953365,355.26084061887536 1725.2850760953365,350.26084061887536" fill="#897BD1" stroke="black" stroke-width="0.5"/>
        <polygon points="1544.144972174487,342.3717601676995 1549.144972174487,347.3717601676995 1544.144972174487,352.3717601676995 1539.144972174487,347.3717601676995" fill="#897BD1" stroke="black" stroke-width="0.5"/>
        <polygon points="1920,255.85816465831005 1925,260.85816465831005 1920,265.85816465831005 1915,260.85816465831005" fill="#897BD1" stroke="black" stroke-width="0.5"/>
        <polygon points="1635.1548001306378,403.91140826714286 1640.1548001306378,408.91140826714286 1635.1548001306378,413.91140826714286 1630.1548001306378,408.91140826714286" fill="#897BD1" stroke="black" stroke-width="0.5"/>
        <polygon points="1527.069100855254,390.81383060400594 1532.069100855254,395.81383060400594 1527.069100855254,400.81383060400594 1522.069100855254,395.81383060400594" fill="#897BD1" stroke="black" stroke-width="0.5"/>
        <polygon points="1202.5629045624569,482.81081319144647 1207.5629045624569,487.81081319144647 1202.5629045624569,492.81081319144647 1197.5629045624569,487.81081319144647" fill="#897BD1" stroke="black" stroke-width="0.5"/>
        <polygon points="1394.5174322810162,444.3586179410277 1399.5174322810162,449.3586179410277 1394.5174322810162,454.3586179410277 1389.5174322810162,449.3586179410277" fill="#897BD1" stroke="black" stroke-width="0.5"/>
        <polygon points="1371.171324239097,380.6850032573131 1376.171324239097,385.6850032573131 1371.171324239097,390.6850032573131 1366.171324239097,385.6850032573131" fill="#897BD1" stroke="black" stroke-width="0.5"/>
      <line x1="1229.6577013047947" y1="455.29479641562847" x2="1239.6577013047947" y2="455.29479641562847" stroke="#897BD1" stroke-width="2"/>
      <line x1="1234.6577013047947" y1="450.29479641562847" x2="1234.6577013047947" y2="460.29479641562847" stroke="#897BD1" stroke-width="2"/>
        <polygon points="1528.3305589339204,621.5595744339303 1533.3305589339204,626.5595744339303 1528.3305589339204,631.5595744339303 1523.3305589339204,626.5595744339303" fill="#F3EBB7" stroke="black" stroke-width="0.5"/>
        <polygon points="1272.1561792842433,799.9746517593156 1277.1561792842433,804.9746517593156 1272.1561792842433,809.9746517593156 1267.1561792842433,804.9746517593156" fill="#F3EBB7" stroke="black" stroke-width="0.5"/>
        <polygon points="1495.8816037474878,496.6351242822392 1500.8816037474878,501.6351242822392 1495.8816037474878,506.6351242822392 1490.8816037474878,501.6351242822392" fill="#F3EBB7" stroke="black" stroke-width="0.5"/>
        <polygon points="1569.5373748512554,535.8168611448667 1574.5373748512554,540.8168611448667 1569.5373748512554,545.8168611448667 1564.5373748512554,540.8168611448667" fill="#F3EBB7" stroke="black" stroke-width="0.5"/>
        <polygon points="1311.2568551495115,734.5580144066133 1316.2568551495115,739.5580144066133 1311.2568551495115,744.5580144066133 1306.2568551495115,739.5580144066133" fill="#F3EBB7" stroke="black" stroke-width="0.5"/>
        <polygon points="1548.5836568397444,739.677200311359 1553.5836568397444,744.677200311359 1548.5836568397444,749.677200311359 1543.5836568397444,744.677200311359" fill="#F3EBB7" stroke="black" stroke-width="0.5"/>
        <polygon points="1687.874235308216,562.3072988227478 1692.874235308216,567.3072988227478 1687.874235308216,572.3072988227478 1682.874235308216,567.3072988227478" fill="#F3EBB7" stroke="black" stroke-width="0.5"/>
        <polygon points="1750.924400400053,682.8661104343811 1755.924400400053,687.8661104343811 1750.924400400053,692.8661104343811 1745.924400400053,687.8661104343811" fill="#F3EBB7" stroke="black" stroke-width="0.5"/>
        <polygon points="1890.6499039699402,920.8288119259123 1895.6499039699402,925.8288119259123 1890.6499039699402,930.8288119259123 1885.6499039699402,925.8288119259123" fill="#F3EBB7" stroke="black" stroke-width="0.5"/>
        <polygon points="1389.6354894698688,796.2622418567746 1394.6354894698688,801.2622418567746 1389.6354894698688,806.2622418567746 1384.6354894698688,801.2622418567746" fill="#F3EBB7" stroke="black" stroke-width="0.5"/>
        <polygon points="1386.6894100485904,891.5321615485102 1391.6894100485904,896.5321615485102 1386.6894100485904,901.5321615485102 1381.6894100485904,896.5321615485102" fill="#F3EBB7" stroke="black" stroke-width="0.5"/>
        <polygon points="1384.7633836580762,678.2478289229152 1389.7633836580762,683.2478289229152 1384.7633836580762,688.2478289229152 1379.7633836580762,683.2478289229152" fill="#F3EBB7" stroke="black" stroke-width="0.5"/>
        <polygon points="1424.1933055857867,701.0262940701023 1429.1933055857867,706.0262940701023 1424.1933055857867,711.0262940701023 1419.1933055857867,706.0262940701023" fill="#F3EBB7" stroke="black" stroke-width="0.5"/>
        <polygon points="1175.6009742077315,587.5823800895831 1180.6009742077315,592.5823800895831 1175.6009742077315,597.5823800895831 1170.6009742077315,592.5823800895831" fill="#F3EBB7" stroke="black" stroke-width="0.5"/>
        <polygon points="1236.984440789956,793.7090554852833 1241.984440789956,798.7090554852833 1236.984440789956,803.7090554852833 1231.984440789956,798.7090554852833" fill="#F3EBB7" stroke="black" stroke-width="0.5"/>
      <line x1="1330.996273781524" y1="608.7672512682276" x2="1340.996273781524" y2="608.7672512682276" stroke="#F3EBB7" stroke-width="2"/>
      <line x1="1335.996273781524" y1="603.7672512682276" x2="1335.996273781524" y2="613.7672512682276" stroke="#F3EBB7" stroke-width="2"/>
        <polygon points="1114.2902777324393,694.8043442754096 1119.2902777324393,699.8043442754096 1114.2902777324393,704.8043442754096 1109.2902777324393,699.8043442754096" fill="#CBDFC1" stroke="black" stroke-width="0.5"/>
        <polygon points="1116.963098271651,746.9468956066803 1121.963098271651,751.9468956066803 1116.963098271651,756.9468956066803 1111.963098271651,751.9468956066803" fill="#CBDFC1" stroke="black" stroke-width="0.5"/>
        <polygon points="1010.7231399257428,699.2237646207562 1015.7231399257428,704.2237646207562 1010.7231399257428,709.2237646207562 1005.7231399257428,704.2237646207562" fill="#CBDFC1" stroke="black" stroke-width="0.5"/>
        <polygon points="1179.788860125877,648.0285981617042 1184.788860125877,653.0285981617042 1179.788860125877,658.0285981617042 1174.788860125877,653.0285981617042" fill="#CBDFC1" stroke="black" stroke-width="0.5"/>
        <polygon points="1194.8134369588156,781.5091407094293 1199.8134369588156,786.5091407094293 1194.8134369588156,791.5091407094293 1189.8134369588156,786.5091407094293" fill="#CBDFC1" stroke="black" stroke-width="0.5"/>
        <polygon points="1014.0818994834433,818.4644450339441 1019.0818994834433,823.4644450339441 1014.0818994834433,828.4644450339441 1009.0818994834433,823.4644450339441" fill="#CBDFC1" stroke="black" stroke-width="0.5"/>
        <polygon points="968.5139832633847,612.9275948020835 973.5139832633847,617.9275948020835 968.5139832633847,622.9275948020835 963.5139832633847,617.9275948020835" fill="#CBDFC1" stroke="black" stroke-width="0.5"/>
        <polygon points="1178.7847164311936,1075 1183.7847164311936,1080 1178.7847164311936,1085 1173.7847164311936,1080" fill="#CBDFC1" stroke="black" stroke-width="0.5"/>
      <line x1="1005.9557372209691" y1="644.132280719918" x2="1015.9557372209691" y2="644.132280719918" stroke="#CBDFC1" stroke-width="2"/>
      <line x1="1010.9557372209691" y1="639.132280719918" x2="1010.9557372209691" y2="649.132280719918" stroke="#CBDFC1" stroke-width="2"/>
        <polygon points="298.7790426151828,751.8616421848986 303.7790426151828,756.8616421848986 298.7790426151828,761.8616421848986 293.7790426151828,756.8616421848986" fill="#22F545" stroke="black" stroke-width="0.5"/>
        <polygon points="358.8326829404578,636.6136578323955 363.8326829404578,641.6136578323955 358.8326829404578,646.6136578323955 353.8326829404578,641.6136578323955" fill="#22F545" stroke="black" stroke-width="0.5"/>
        <polygon points="673.9679423801294,608.9551137924442 678.9679423801294,613.9551137924442 673.9679423801294,618.9551137924442 668.9679423801294,613.9551137924442" fill="#22F545" stroke="black" stroke-width="0.5"/>
        <polygon points="0,733.0886025977707 5,738.0886025977707 0,743.0886025977707 -5,738.0886025977707" fill="#22F545" stroke="black" stroke-width="0.5"/>
        <polygon points="127.3155554303294,609.2418365844024 132.3155554303294,614.2418365844024 127.3155554303294,619.2418365844024 122.3155554303294,614.2418365844024" fill="#22F545" stroke="black" stroke-width="0.5"/>
        <polygon points="141.6479005494386,674.247106526667 146.6479005494386,679.247106526667 141.6479005494386,684.247106526667 136.6479005494386,679.247106526667" fill="#22F545" stroke="black" stroke-width="0.5"/>
        <polygon points="79.89802744174581,771.3079940004924 84.89802744174581,776.3079940004924 79.89802744174581,781.3079940004924 74.89802744174581,776.3079940004924" fill="#22F545" stroke="black" stroke-width="0.5"/>
        <polygon points="525.3889685886452,678.0876743431205 530.3889685886452,683.0876743431205 525.3889685886452,688.0876743431205 520.3889685886452,683.0876743431205" fill="#22F545" stroke="black" stroke-width="0.5"/>
        <polygon points="175.28429362430973,543.6092215469056 180.28429362430973,548.6092215469056 175.28429362430973,553.6092215469056 170.28429362430973,548.6092215469056" fill="#22F545" stroke="black" stroke-width="0.5"/>
        <polygon points="115.59995586331353,748.5374685010944 120.59995586331353,753.5374685010944 115.59995586331353,758.5374685010944 110.59995586331353,753.5374685010944" fill="#22F545" stroke="black" stroke-width="0.5"/>
        <polygon points="483.38055869817316,654.2010922438681 488.38055869817316,659.2010922438681 483.38055869817316,664.2010922438681 478.38055869817316,659.2010922438681" fill="#22F545" stroke="black" stroke-width="0.5"/>
        <polygon points="43.901966244841965,499.1365739245062 48.901966244841965,504.1365739245062 43.901966244841965,509.1365739245062 38.901966244841965,504.1365739245062" fill="#22F545" stroke="black" stroke-width="0.5"/>
      <line x1="639.1158185576903" y1="627.4464998348982" x2="649.1158185576903" y2="627.4464998348982" stroke="#22F545" stroke-width="2"/>
      <line x1="644.1158185576903" y1="622.4464998348982" x2="644.1158185576903" y2="632.4464998348982" stroke="#22F545" stroke-width="2"/>
        <polygon points="707.5942771440455,774.1938753908138 712.5942771440455,779.1938753908138 707.5942771440455,784.1938753908138 702.5942771440455,779.1938753908138" fill="#25A090" stroke="black" stroke-width="0.5"/>
        <polygon points="641.3013618089815,781.8881355671057 646.3013618089815,786.8881355671057 641.3013618089815,791.8881355671057 636.3013618089815,786.8881355671057" fill="#25A090" stroke="black" stroke-width="0.5"/>
        <polygon points="714.0181387988206,960.0297109271906 719.0181387988206,965.0297109271906 714.0181387988206,970.0297109271906 709.0181387988206,965.0297109271906" fill="#25A090" stroke="black" stroke-width="0.5"/>
        <polygon points="791.561300117078,980.2364548324917 796.561300117078,985.2364548324917 791.561300117078,990.2364548324917 786.561300117078,985.2364548324917" fill="#25A090" stroke="black" stroke-width="0.5"/>
        <polygon points="367.83668677260863,1048.1188775513215 372.83668677260863,1053.1188775513215 367.83668677260863,1058.1188775513215 362.83668677260863,1053.1188775513215" fill="#25A090" stroke="black" stroke-width="0.5"/>
        <polygon points="970.6449071380821,1006.9256887281521 975.6449071380821,1011.9256887281521 970.6449071380821,1016.9256887281521 965.6449071380821,1011.9256887281521" fill="#25A090" stroke="black" stroke-width="0.5"/>
        <polygon points="785.8697195611743,771.1923639940875 790.8697195611743,776.1923639940875 785.8697195611743,781.1923639940875 780.8697195611743,776.1923639940875" fill="#25A090" stroke="black" stroke-width="0.5"/>
        <polygon points="796.6051147308337,872.475307132955 801.6051147308337,877.475307132955 796.6051147308337,882.475307132955 791.6051147308337,877.475307132955" fill="#25A090" stroke="black" stroke-width="0.5"/>
        <polygon points="908.5758670126513,729.5253632712227 913.5758670126513,734.5253632712227 908.5758670126513,739.5253632712227 903.5758670126513,734.5253632712227" fill="#25A090" stroke="black" stroke-width="0.5"/>
        <polygon points="933.8876500283335,864.5520413860979 938.8876500283335,869.5520413860979 933.8876500283335,874.5520413860979 928.8876500283335,869.5520413860979" fill="#25A090" stroke="black" stroke-width="0.5"/>
        <polygon points="1022.4790226428702,907.9830536344468 1027.4790226428702,912.9830536344468 1022.4790226428702,917.9830536344468 1017.4790226428702,912.9830536344468" fill="#25A090" stroke="black" stroke-width="0.5"/>
        <polygon points="59.1734328818644,914.36449447117 64.1734328818644,919.36449447117 59.1734328818644,924.36449447117 54.1734328818644,919.36449447117" fill="#25A090" stroke="black" stroke-width="0.5"/>
        <polygon points="722.3173047058931,856.2681798725365 727.3173047058931,861.2681798725365 722.3173047058931,866.2681798725365 717.3173047058931,861.2681798725365" fill="#25A090" stroke="black" stroke-width="0.5"/>
        <polygon points="207.28472035996745,887.2567670194667 212.28472035996745,892.2567670194667 207.28472035996745,897.2567670194667 202.28472035996745,892.2567670194667" fill="#25A090" stroke="black" stroke-width="0.5"/>
        <polygon points="796.4955552793456,916.07125549426 801.4955552793456,921.07125549426 796.4955552793456,926.07125549426 791.4955552793456,921.07125549426" fill="#25A090" stroke="black" stroke-width="0.5"/>
      <line x1="728.8560367408209" y1="709.1534744112935" x2="738.8560367408209" y2="709.1534744112935" stroke="#25A090" stroke-width="2"/>
      <line x1="733.8560367408209" y1="704.1534744112935" x2="733.8560367408209" y2="714.1534744112935" stroke="#25A090" stroke-width="2"/>
        <polygon points="452.79817358050207,167.58003763175387 457.79817358050207,172.58003763175387 452.79817358050207,177.58003763175387 447.79817358050207,172.58003763175387" fill="#BB82B1" stroke="black" stroke-width="0.5"/>
        <polygon points="420.614271589298,411.9358977424958 425.614271589298,416.9358977424958 420.614271589298,421.9358977424958 415.614271589298,416.9358977424958" fill="#BB82B1" stroke="black" stroke-width="0.5"/>
        <polygon points="216.21477895526527,380.24780661924984 221.21477895526527,385.24780661924984 216.21477895526527,390.24780661924984 211.21477895526527,385.24780661924984" fill="#BB82B1" stroke="black" stroke-width="0.5"/>
        <polygon points="45.15525839182359,326.60947189408967 50.15525839182359,331.60947189408967 45.15525839182359,336.60947189408967 40.15525839182359,331.60947189408967" fill="#BB82B1" stroke="black" stroke-width="0.5"/>
        <polygon points="570.2441726242685,453.3974828932758 575.2441726242685,458.3974828932758 570.2441726242685,463.3974828932758 565.2441726242685,458.3974828932758" fill="#BB82B1" stroke="black" stroke-width="0.5"/>
        <polygon points="509.21979060755285,337.76042221515996 514.2197906075528,342.76042221515996 509.21979060755285,347.76042221515996 504.21979060755285,342.76042221515996" fill="#BB82B1" stroke="black" stroke-width="0.5"/>
        <polygon points="625.9074177367318,526.8970758501998 630.9074177367318,531.8970758501998 625.9074177367318,536.8970758501998 620.9074177367318,531.8970758501998" fill="#BB82B1" stroke="black" stroke-width="0.5"/>
        <polygon points="272.7626536713711,215.24884722892355 277.7626536713711,220.24884722892355 272.7626536713711,225.24884722892355 267.7626536713711,220.24884722892355" fill="#BB82B1" stroke="black" stroke-width="0.5"/>
        <polygon points="208.9866682444669,122.10729167548858 213.9866682444669,127.10729167548858 208.9866682444669,132.10729167548857 203.9866682444669,127.10729167548858" fill="#BB82B1" stroke="black" stroke-width="0.5"/>
        <polygon points="319.85086015932126,97.76315674435938 324.85086015932126,102.76315674435938 319.85086015932126,107.76315674435938 314.85086015932126,102.76315674435938" fill="#BB82B1" stroke="black" stroke-width="0.5"/>
        <polygon points="360.42278098271333,81.61077363621104 365.42278098271333,86.61077363621104 360.42278098271333,91.61077363621104 355.42278098271333,86.61077363621104" fill="#BB82B1" stroke="black" stroke-width="0.5"/>
        <polygon points="49.91326354653113,415.5889966231804 54.91326354653113,420.5889966231804 49.91326354653113,425.5889966231804 44.91326354653113,420.5889966231804" fill="#BB82B1" stroke="black" stroke-width="0.5"/>
      <line x1="692.4989462484571" y1="516.5088164391249" x2="702.4989462484571" y2="516.5088164391249" stroke="#BB82B1" stroke-width="2"/>
      <line x1="697.4989462484571" y1="511.50881643912487" x2="697.4989462484571" y2="521.5088164391249" stroke="#BB82B1" stroke-width="2"/>
        <polygon points="945.9806667588672,476.6977853996862 950.9806667588672,481.6977853996862 945.9806667588672,486.6977853996862 940.9806667588672,481.6977853996862" fill="#B8136D" stroke="black" stroke-width="0.5"/>
        <polygon points="1155.074002448046,491.4138087755844 1160.074002448046,496.4138087755844 1155.074002448046,501.4138087755844 1150.074002448046,496.4138087755844" fill="#B8136D" stroke="black" stroke-width="0.5"/>
        <polygon points="1116.7803647075232,420.7086303997778 1121.7803647075232,425.7086303997778 1116.7803647075232,430.7086303997778 1111.7803647075232,425.7086303997778" fill="#B8136D" stroke="black" stroke-width="0.5"/>
        <polygon points="951.0810033847201,447.9946522716757 956.0810033847201,452.9946522716757 951.0810033847201,457.9946522716757 946.0810033847201,452.9946522716757" fill="#B8136D" stroke="black" stroke-width="0.5"/>
        <polygon points="1103.54041254347,525.6983237130879 1108.54041254347,530.6983237130879 1103.54041254347,535.6983237130879 1098.54041254347,530.6983237130879" fill="#B8136D" stroke="black" stroke-width="0.5"/>
      <line x1="1068.826769273557" y1="468.4487943121076" x2="1078.826769273557" y2="468.4487943121076" stroke="#B8136D" stroke-width="2"/>
      <line x1="1073.826769273557" y1="463.4487943121076" x2="1073.826769273557" y2="473.4487943121076" stroke="#B8136D" stroke-width="2"/>
        <polygon points="741.7120850525911,544.4817956901132 746.7120850525911,549.4817956901132 741.7120850525911,554.4817956901132 736.7120850525911,549.4817956901132" fill="#A6B679" stroke="black" stroke-width="0.5"/>
      <line x1="697.114389718233" y1="578.6155410876077" x2="707.114389718233" y2="578.6155410876077" stroke="#A6B679" stroke-width="2"/>
      <line x1="702.114389718233" y1="573.6155410876077" x2="702.114389718233" y2="583.6155410876077" stroke="#A6B679" stroke-width="2"/>
</svg>