<svg xmlns="http://www.w3.org/2000/svg" width="1920" height="1080"> <rect width="100%" height="100%" fill="lightgray" />
        <polygon points="661.6690199055354,699.901837659068 666.6690199055354,704.901837659068 661.6690199055354,709.901837659068 656.6690199055354,704.901837659068" fill="#931FB1" stroke="black" stroke-width="0.5"/>
        <polygon points="694.2489659082961,718.6666956952655 699.2489659082961,723.6666956952655 694.2489659082961,728.6666956952655 689.2489659082961,723.6666956952655" fill="#931FB1" stroke="black" stroke-width="0.5"/>
        <polygon points="746.5925700285007,731.3534559602581 751.5925700285007,736.3534559602581 746.5925700285007,741.3534559602581 741.5925700285007,736.3534559602581" fill="#931FB1" stroke="black" stroke-width="0.5"/>
        <polygon points="418.4329154498941,690.3534775375564 423.4329154498941,695.3534775375564 418.4329154498941,700.3534775375564 413.4329154498941,695.3534775375564" fill="#931FB1" stroke="black" stroke-width="0.5"/>
        <polygon points="510.9205709887026,697.4012531498082 515.9205709887026,702.4012531498082 510.9205709887026,707.4012531498082 505.9205709887026,702.4012531498082" fill="#931FB1" stroke="black" stroke-width="0.5"/>
        <polygon points="493.98225602519653,663.5392362796082 498.98225602519653,668.5392362796082 493.98225602519653,673.5392362796082 488.98225602519653,668.5392362796082" fill="#931FB1" stroke="black" stroke-width="0.5"/>
        <polygon points="420.6889327228935,676.6070165210481 425.6889327228935,681.6070165210481 420.6889327228935,686.6070165210481 415.6889327228935,681.6070165210481" fill="#931FB1" stroke="black" stroke-width="0.5"/>
        <polygon points="531.9262008725876,693.2811195429604 536.9262008725876,698.2811195429604 531.9262008725876,703.2811195429604 526.9262008725876,698.2811195429604" fill="#931FB1" stroke="black" stroke-width="0.5"/>
        <polygon points="488.1258659539245,713.8207410836314 493.1258659539245,718.8207410836314 488.1258659539245,723.8207410836314 483.1258659539245,718.8207410836314" fill="#931FB1" stroke="black" stroke-width="0.5"/>
        <polygon points="671.9260882163414,702.3309343871651 676.9260882163414,707.3309343871651 671.9260882163414,712.3309343871651 666.9260882163414,707.3309343871651" fill="#931FB1" stroke="black" stroke-width="0.5"/>
        <polygon points="735.262835560213,748.4122831072862 740.262835560213,753.4122831072862 735.262835560213,758.4122831072862 730.262835560213,753.4122831072862" fill="#931FB1" stroke="black" stroke-width="0.5"/>
      <line x1="486.4882089320674" y1="682.5134665805405" x2="496.4882089320674" y2="682.5134665805405" stroke="#931FB1" stroke-width="2"/>
      <line x1="491.4882089320674" y1="677.5134665805405" x2="491.4882089320674" y2="687.5134665805405" stroke="#931FB1" stroke-width="2"/>
        <polygon points="676.0220731962354,759.7304659959211 681.0220731962354,764.7304659959211 676.0220731962354,769.7304659959211 671.0220731962354,764.7304659959211" fill="#D347F5" stroke="black" stroke-width="0.5"/>
        <polygon points="492.88082299456386,794.8087401619723 497.88082299456386,799.8087401619723 492.88082299456386,804.8087401619723 487.88082299456386,799.8087401619723" fill="#D347F5" stroke="black" stroke-width="0.5"/>
        <polygon points="562.7091945011089,845.1767444308468 567.7091945011089,850.1767444308468 562.7091945011089,855.1767444308468 557.7091945011089,850.1767444308468" fill="#D347F5" stroke="black" stroke-width="0.5"/>
        <polygon points="494.063084038575,819.7807718206736 499.063084038575,824.7807718206736 494.063084038575,829.7807718206736 489.063084038575,824.7807718206736" fill="#D347F5" stroke="black" stroke-width="0.5"/>
        <polygon points="312.9881473745964,832.8298540846118 317.9881473745964,837.8298540846118 312.9881473745964,842.8298540846118 307.9881473745964,837.8298540846118" fill="#D347F5" stroke="black" stroke-width="0.5"/>
        <polygon points="580.0044843239144,813.8475076123603 585.0044843239144,818.8475076123603 580.0044843239144,823.8475076123603 575.0044843239144,818.8475076123603" fill="#D347F5" stroke="black" stroke-width="0.5"/>
        <polygon points="684.9805679112086,816.2991803674566 689.9805679112086,821.2991803674566 684.9805679112086,826.2991803674566 679.9805679112086,821.2991803674566" fill="#D347F5" stroke="black" stroke-width="0.5"/>
        <polygon points="447.07026793773053,796.925282255894 452.07026793773053,801.925282255894 447.07026793773053,806.925282255894 442.07026793773053,801.925282255894" fill="#D347F5" stroke="black" stroke-width="0.5"/>
        <polygon points="521.8526231082202,772.4069707243823 526.8526231082202,777.4069707243823 521.8526231082202,782.4069707243823 516.8526231082202,777.4069707243823" fill="#D347F5" stroke="black" stroke-width="0.5"/>
        <polygon points="774.4813687386961,789.0912993038693 779.4813687386961,794.0912993038693 774.4813687386961,799.0912993038693 769.4813687386961,794.0912993038693" fill="#D347F5" stroke="black" stroke-width="0.5"/>
        <polygon points="450.8622721699648,731.6136256886542 455.8622721699648,736.6136256886542 450.8622721699648,741.6136256886542 445.8622721699648,736.6136256886542" fill="#D347F5" stroke="black" stroke-width="0.5"/>
        <polygon points="528.4984010913447,836.333269864321 533.4984010913447,841.333269864321 528.4984010913447,846.333269864321 523.4984010913447,841.333269864321" fill="#D347F5" stroke="black" stroke-width="0.5"/>
        <polygon points="836.285750028822,903.0560356567843 841.285750028822,908.0560356567843 836.285750028822,913.0560356567843 831.285750028822,908.0560356567843" fill="#D347F5" stroke="black" stroke-width="0.5"/>
        <polygon points="315.82959567804204,921.8300707953831 320.82959567804204,926.8300707953831 315.82959567804204,931.8300707953831 310.82959567804204,926.8300707953831" fill="#D347F5" stroke="black" stroke-width="0.5"/>
        <polygon points="350.1290398461442,931.5074539620913 355.1290398461442,936.5074539620913 350.1290398461442,941.5074539620913 345.1290398461442,936.5074539620913" fill="#D347F5" stroke="black" stroke-width="0.5"/>
        <polygon points="448.5559384206582,854.0318482036452 453.5559384206582,859.0318482036452 448.5559384206582,864.0318482036452 443.5559384206582,859.0318482036452" fill="#D347F5" stroke="black" stroke-width="0.5"/>
        <polygon points="428.40001271843033,755.5964513928714 433.40001271843033,760.5964513928714 428.40001271843033,765.5964513928714 423.40001271843033,760.5964513928714" fill="#D347F5" stroke="black" stroke-width="0.5"/>
        <polygon points="614.6734808690713,843.3988027066808 619.6734808690713,848.3988027066808 614.6734808690713,853.3988027066808 609.6734808690713,848.3988027066808" fill="#D347F5" stroke="black" stroke-width="0.5"/>
        <polygon points="521.408463107428,976.8914673944105 526.408463107428,981.8914673944105 521.408463107428,986.8914673944105 516.408463107428,981.8914673944105" fill="#D347F5" stroke="black" stroke-width="0.5"/>
        <polygon points="460.9938456259304,736.4168628561298 465.9938456259304,741.4168628561298 460.9938456259304,746.4168628561298 455.9938456259304,741.4168628561298" fill="#D347F5" stroke="black" stroke-width="0.5"/>
        <polygon points="162.70414678033313,964.0176009710916 167.70414678033313,969.0176009710916 162.70414678033313,974.0176009710916 157.70414678033313,969.0176009710916" fill="#D347F5" stroke="black" stroke-width="0.5"/>
        <polygon points="429.34257816487485,944.2894214104161 434.34257816487485,949.2894214104161 429.34257816487485,954.2894214104161 424.34257816487485,949.2894214104161" fill="#D347F5" stroke="black" stroke-width="0.5"/>
        <polygon points="347.6114993411312,831.3923747954454 352.6114993411312,836.3923747954454 347.6114993411312,841.3923747954454 342.6114993411312,836.3923747954454" fill="#D347F5" stroke="black" stroke-width="0.5"/>
        <polygon points="352.3600558996263,879.8986484237059 357.3600558996263,884.8986484237059 352.3600558996263,889.8986484237059 347.3600558996263,884.8986484237059" fill="#D347F5" stroke="black" stroke-width="0.5"/>
        <polygon points="401.88775764740575,811.4372779578555 406.88775764740575,816.4372779578555 401.88775764740575,821.4372779578555 396.88775764740575,816.4372779578555" fill="#D347F5" stroke="black" stroke-width="0.5"/>
        <polygon points="413.08384603975634,876.1040500003611 418.08384603975634,881.1040500003611 413.08384603975634,886.1040500003611 408.08384603975634,881.1040500003611" fill="#D347F5" stroke="black" stroke-width="0.5"/>
        <polygon points="452.2702138265492,896.9039645642806 457.2702138265492,901.9039645642806 452.2702138265492,906.9039645642806 447.2702138265492,901.9039645642806" fill="#D347F5" stroke="black" stroke-width="0.5"/>
        <polygon points="613.3703500074056,889.0253282587049 618.3703500074056,894.0253282587049 613.3703500074056,899.0253282587049 608.3703500074056,894.0253282587049" fill="#D347F5" stroke="black" stroke-width="0.5"/>
        <polygon points="319.5005419334203,872.1367555989287 324.5005419334203,877.1367555989287 319.5005419334203,882.1367555989287 314.5005419334203,877.1367555989287" fill="#D347F5" stroke="black" stroke-width="0.5"/>
        <polygon points="612.5184162775362,786.8795189216547 617.5184162775362,791.8795189216547 612.5184162775362,796.8795189216547 607.5184162775362,791.8795189216547" fill="#D347F5" stroke="black" stroke-width="0.5"/>
        <polygon points="629.959340566932,797.7885469279435 634.959340566932,802.7885469279435 629.959340566932,807.7885469279435 624.959340566932,802.7885469279435" fill="#D347F5" stroke="black" stroke-width="0.5"/>
        <polygon points="520.0002075400405,743.4581595748112 525.0002075400405,748.4581595748112 520.0002075400405,753.4581595748112 515.0002075400405,748.4581595748112" fill="#D347F5" stroke="black" stroke-width="0.5"/>
        <polygon points="352.31159478164335,900.7775539408727 357.31159478164335,905.7775539408727 352.31159478164335,910.7775539408727 347.31159478164335,905.7775539408727" fill="#D347F5" stroke="black" stroke-width="0.5"/>
        <polygon points="547.1517802782267,842.176034559139 552.1517802782267,847.176034559139 547.1517802782267,852.176034559139 542.1517802782267,847.176034559139" fill="#D347F5" stroke="black" stroke-width="0.5"/>
        <polygon points="682.9890518330276,895.2475055258518 687.9890518330276,900.2475055258518 682.9890518330276,905.2475055258518 677.9890518330276,900.2475055258518" fill="#D347F5" stroke="black" stroke-width="0.5"/>
        <polygon points="599.3119267638708,787.9733752324724 604.3119267638708,792.9733752324724 599.3119267638708,797.9733752324724 594.3119267638708,792.9733752324724" fill="#D347F5" stroke="black" stroke-width="0.5"/>
        <polygon points="582.4277464927474,774.090338496317 587.4277464927474,779.090338496317 582.4277464927474,784.090338496317 577.4277464927474,779.090338496317" fill="#D347F5" stroke="black" stroke-width="0.5"/>
        <polygon points="559.0868447593643,1022.628127624216 564.0868447593643,1027.628127624216 559.0868447593643,1032.628127624216 554.0868447593643,1027.628127624216" fill="#D347F5" stroke="black" stroke-width="0.5"/>
        <polygon points="707.0537919280418,963.6043850451895 712.0537919280418,968.6043850451895 707.0537919280418,973.6043850451895 702.0537919280418,968.6043850451895" fill="#D347F5" stroke="black" stroke-width="0.5"/>
        <polygon points="707.6548321599528,1010.9970196087311 712.6548321599528,1015.9970196087311 707.6548321599528,1020.9970196087311 702.6548321599528,1015.9970196087311" fill="#D347F5" stroke="black" stroke-width="0.5"/>
      <line x1="436.0101517611249" y1="764.8369947911397" x2="446.0101517611249" y2="764.8369947911397" stroke="#D347F5" stroke-width="2"/>
      <line x1="441.0101517611249" y1="759.8369947911397" x2="441.0101517611249" y2="769.8369947911397" stroke="#D347F5" stroke-width="2"/>
        <polygon points="132.15807708326741,822.1345348033483 137.15807708326741,827.1345348033483 132.15807708326741,832.1345348033483 127.15807708326741,827.1345348033483" fill="#8EFBD3" stroke="black" stroke-width="0.5"/>
        <polygon points="158.72143158688482,766.9401448018323 163.72143158688482,771.9401448018323 158.72143158688482,776.9401448018323 153.72143158688482,771.9401448018323" fill="#8EFBD3" stroke="black" stroke-width="0.5"/>
        <polygon points="186.04910451706522,659.3378124509359 191.04910451706522,664.3378124509359 186.04910451706522,669.3378124509359 181.04910451706522,664.3378124509359" fill="#8EFBD3" stroke="black" stroke-width="0.5"/>
        <polygon points="95.63766311586517,644.1617998752155 100.63766311586517,649.1617998752155 95.63766311586517,654.1617998752155 90.63766311586517,649.1617998752155" fill="#8EFBD3" stroke="black" stroke-width="0.5"/>
        <polygon points="416.31510733596406,694.2863672585249 421.31510733596406,699.2863672585249 416.31510733596406,704.2863672585249 411.31510733596406,699.2863672585249" fill="#8EFBD3" stroke="black" stroke-width="0.5"/>
        <polygon points="401.76450526574615,730.5047038276093 406.76450526574615,735.5047038276093 401.76450526574615,740.5047038276093 396.76450526574615,735.5047038276093" fill="#8EFBD3" stroke="black" stroke-width="0.5"/>
        <polygon points="283.6649922488537,836.5147775071721 288.6649922488537,841.5147775071721 283.6649922488537,846.5147775071721 278.6649922488537,841.5147775071721" fill="#8EFBD3" stroke="black" stroke-width="0.5"/>
        <polygon points="298.11430715187015,753.6939568082458 303.11430715187015,758.6939568082458 298.11430715187015,763.6939568082458 293.11430715187015,758.6939568082458" fill="#8EFBD3" stroke="black" stroke-width="0.5"/>
        <polygon points="0,813.143779135843 5,818.143779135843 0,823.143779135843 -5,818.143779135843" fill="#8EFBD3" stroke="black" stroke-width="0.5"/>
        <polygon points="56.31512451872841,753.8312736532265 61.31512451872841,758.8312736532265 56.31512451872841,763.8312736532265 51.31512451872841,758.8312736532265" fill="#8EFBD3" stroke="black" stroke-width="0.5"/>
        <polygon points="19.97339594848219,618.4734099004537 24.97339594848219,623.4734099004537 19.97339594848219,628.4734099004537 14.973395948482189,623.4734099004537" fill="#8EFBD3" stroke="black" stroke-width="0.5"/>
        <polygon points="252.23446953415097,679.1945319740613 257.234469534151,684.1945319740613 252.23446953415097,689.1945319740613 247.23446953415097,684.1945319740613" fill="#8EFBD3" stroke="black" stroke-width="0.5"/>
        <polygon points="398.1436844160865,747.6174110827044 403.1436844160865,752.6174110827044 398.1436844160865,757.6174110827044 393.1436844160865,752.6174110827044" fill="#8EFBD3" stroke="black" stroke-width="0.5"/>
        <polygon points="62.65470963305253,784.9634990149557 67.65470963305253,789.9634990149557 62.65470963305253,794.9634990149557 57.65470963305253,789.9634990149557" fill="#8EFBD3" stroke="black" stroke-width="0.5"/>
        <polygon points="35.341065347234235,831.4477521428691 40.341065347234235,836.4477521428691 35.341065347234235,841.4477521428691 30.341065347234235,836.4477521428691" fill="#8EFBD3" stroke="black" stroke-width="0.5"/>
        <polygon points="225.24172964204573,623.8138061283494 230.24172964204573,628.8138061283494 225.24172964204573,633.8138061283494 220.24172964204573,628.8138061283494" fill="#8EFBD3" stroke="black" stroke-width="0.5"/>
        <polygon points="276.8558331140338,714.3948456403631 281.8558331140338,719.3948456403631 276.8558331140338,724.3948456403631 271.8558331140338,719.3948456403631" fill="#8EFBD3" stroke="black" stroke-width="0.5"/>
        <polygon points="232.39379576855285,786.8028179330223 237.39379576855285,791.8028179330223 232.39379576855285,796.8028179330223 227.39379576855285,791.8028179330223" fill="#8EFBD3" stroke="black" stroke-width="0.5"/>
        <polygon points="26.174014869427094,899.9601545383836 31.174014869427094,904.9601545383836 26.174014869427094,909.9601545383836 21.174014869427094,904.9601545383836" fill="#8EFBD3" stroke="black" stroke-width="0.5"/>
        <polygon points="120.65032237139187,565.1407483088922 125.65032237139187,570.1407483088922 120.65032237139187,575.1407483088922 115.65032237139187,570.1407483088922" fill="#8EFBD3" stroke="black" stroke-width="0.5"/>
        <polygon points="92.4404736338893,520.5335356843316 97.4404736338893,525.5335356843316 92.4404736338893,530.5335356843316 87.4404736338893,525.5335356843316" fill="#8EFBD3" stroke="black" stroke-width="0.5"/>
        <polygon points="77.53299891961846,722.3986011292641 82.53299891961846,727.3986011292641 77.53299891961846,732.3986011292641 72.53299891961846,727.3986011292641" fill="#8EFBD3" stroke="black" stroke-width="0.5"/>
        <polygon points="51.13299696017487,820.5425265806667 56.13299696017487,825.5425265806667 51.13299696017487,830.5425265806667 46.13299696017487,825.5425265806667" fill="#8EFBD3" stroke="black" stroke-width="0.5"/>
        <polygon points="393.0441689752074,719.2994410536518 398.0441689752074,724.2994410536518 393.0441689752074,729.2994410536518 388.0441689752074,724.2994410536518" fill="#8EFBD3" stroke="black" stroke-width="0.5"/>
        <polygon points="22.077990723585966,661.0873490304035 27.077990723585966,666.0873490304035 22.077990723585966,671.0873490304035 17.077990723585966,666.0873490304035" fill="#8EFBD3" stroke="black" stroke-width="0.5"/>
        <polygon points="91.68765590697437,886.9777627904482 96.68765590697437,891.9777627904482 91.68765590697437,896.9777627904482 86.68765590697437,891.9777627904482" fill="#8EFBD3" stroke="black" stroke-width="0.5"/>
        <polygon points="328.0793795039431,722.8164930154957 333.0793795039431,727.8164930154957 328.0793795039431,732.8164930154957 323.0793795039431,727.8164930154957" fill="#8EFBD3" stroke="black" stroke-width="0.5"/>
        <polygon points="213.81233629316063,775.3630922354619 218.81233629316063,780.3630922354619 213.81233629316063,785.3630922354619 208.81233629316063,780.3630922354619" fill="#8EFBD3" stroke="black" stroke-width="0.5"/>
        <polygon points="19.419030827291344,701.0998281306595 24.419030827291344,706.0998281306595 19.419030827291344,711.0998281306595 14.419030827291344,706.0998281306595" fill="#8EFBD3" stroke="black" stroke-width="0.5"/>
        <polygon points="213.9659736169698,768.4527474336775 218.9659736169698,773.4527474336775 213.9659736169698,778.4527474336775 208.9659736169698,773.4527474336775" fill="#8EFBD3" stroke="black" stroke-width="0.5"/>
        <polygon points="86.16157231937406,811.7256752164014 91.16157231937406,816.7256752164014 86.16157231937406,821.7256752164014 81.16157231937406,816.7256752164014" fill="#8EFBD3" stroke="black" stroke-width="0.5"/>
        <polygon points="260.5726624955879,764.2113022456092 265.5726624955879,769.2113022456092 260.5726624955879,774.2113022456092 255.5726624955879,769.2113022456092" fill="#8EFBD3" stroke="black" stroke-width="0.5"/>
        <polygon points="399.260522167619,686.7117747710661 404.260522167619,691.7117747710661 399.260522167619,696.7117747710661 394.260522167619,691.7117747710661" fill="#8EFBD3" stroke="black" stroke-width="0.5"/>
        <polygon points="409.89509291605157,724.3909888483852 414.89509291605157,729.3909888483852 409.89509291605157,734.3909888483852 404.89509291605157,729.3909888483852" fill="#8EFBD3" stroke="black" stroke-width="0.5"/>
        <polygon points="182.98237108294853,770.5261418261288 187.98237108294853,775.5261418261288 182.98237108294853,780.5261418261288 177.98237108294853,775.5261418261288" fill="#8EFBD3" stroke="black" stroke-width="0.5"/>
        <polygon points="89.06348815589584,825.2737113918831 94.06348815589584,830.2737113918831 89.06348815589584,835.2737113918831 84.06348815589584,830.2737113918831" fill="#8EFBD3" stroke="black" stroke-width="0.5"/>
      <line x1="364.36995337785044" y1="735.1065419893163" x2="374.36995337785044" y2="735.1065419893163" stroke="#8EFBD3" stroke-width="2"/>
      <line x1="369.36995337785044" y1="730.1065419893163" x2="369.36995337785044" y2="740.1065419893163" stroke="#8EFBD3" stroke-width="2"/>
        <polygon points="649.0329397184626,675.9808505553588 654.0329397184626,680.9808505553588 649.0329397184626,685.9808505553588 644.0329397184626,680.9808505553588" fill="#B006B8" stroke="black" stroke-width="0.5"/>
        <polygon points="200.28491758803773,542.3112742612878 205.28491758803773,547.3112742612878 200.28491758803773,552.3112742612878 195.28491758803773,547.3112742612878" fill="#B006B8" stroke="black" stroke-width="0.5"/>
        <polygon points="678.7596834353146,604.8584863181342 683.7596834353146,609.8584863181342 678.7596834353146,614.8584863181342 673.7596834353146,609.8584863181342" fill="#B006B8" stroke="black" stroke-width="0.5"/>
        <polygon points="739.9364405565818,565.1717918509794 744.9364405565818,570.1717918509794 739.9364405565818,575.1717918509794 734.9364405565818,570.1717918509794" fill="#B006B8" stroke="black" stroke-width="0.5"/>
        <polygon points="498.6504529244669,652.276992571761 503.6504529244669,657.276992571761 498.6504529244669,662.276992571761 493.6504529244669,657.276992571761" fill="#B006B8" stroke="black" stroke-width="0.5"/>
        <polygon points="466.1134249037839,578.843769708962 471.1134249037839,583.843769708962 466.1134249037839,588.843769708962 461.1134249037839,583.843769708962" fill="#B006B8" stroke="black" stroke-width="0.5"/>
        <polygon points="765.3520356083186,627.4058951429649 770.3520356083186,632.4058951429649 765.3520356083186,637.4058951429649 760.3520356083186,632.4058951429649" fill="#B006B8" stroke="black" stroke-width="0.5"/>
        <polygon points="325.29043186468385,459.6595041931163 330.29043186468385,464.6595041931163 325.29043186468385,469.6595041931163 320.29043186468385,464.6595041931163" fill="#B006B8" stroke="black" stroke-width="0.5"/>
        <polygon points="492.8523543967334,478.34005034918886 497.8523543967334,483.34005034918886 492.8523543967334,488.34005034918886 487.8523543967334,483.34005034918886" fill="#B006B8" stroke="black" stroke-width="0.5"/>
        <polygon points="683.0172172524578,626.0222611118462 688.0172172524578,631.0222611118462 683.0172172524578,636.0222611118462 678.0172172524578,631.0222611118462" fill="#B006B8" stroke="black" stroke-width="0.5"/>
        <polygon points="586.0137715870264,583.2185687487663 591.0137715870264,588.2185687487663 586.0137715870264,593.2185687487663 581.0137715870264,588.2185687487663" fill="#B006B8" stroke="black" stroke-width="0.5"/>
        <polygon points="527.5338739051818,469.90988880701536 532.5338739051818,474.90988880701536 527.5338739051818,479.90988880701536 522.5338739051818,474.90988880701536" fill="#B006B8" stroke="black" stroke-width="0.5"/>
        <polygon points="612.6735841161961,473.6652499709101 617.6735841161961,478.6652499709101 612.6735841161961,483.6652499709101 607.6735841161961,478.6652499709101" fill="#B006B8" stroke="black" stroke-width="0.5"/>
        <polygon points="849.2680938357729,584.5893010665461 854.2680938357729,589.5893010665461 849.2680938357729,594.5893010665461 844.2680938357729,589.5893010665461" fill="#B006B8" stroke="black" stroke-width="0.5"/>
        <polygon points="723.2733334548755,655.4947361129498 728.2733334548755,660.4947361129498 723.2733334548755,665.4947361129498 718.2733334548755,660.4947361129498" fill="#B006B8" stroke="black" stroke-width="0.5"/>
        <polygon points="489.2621668746235,599.6570104869688 494.2621668746235,604.6570104869688 489.2621668746235,609.6570104869688 484.2621668746235,604.6570104869688" fill="#B006B8" stroke="black" stroke-width="0.5"/>
        <polygon points="675.4640960619007,649.2220640686112 680.4640960619007,654.2220640686112 675.4640960619007,659.2220640686112 670.4640960619007,654.2220640686112" fill="#B006B8" stroke="black" stroke-width="0.5"/>
        <polygon points="638.4966188652969,615.6748646782443 643.4966188652969,620.6748646782443 638.4966188652969,625.6748646782443 633.4966188652969,620.6748646782443" fill="#B006B8" stroke="black" stroke-width="0.5"/>
        <polygon points="640.5476132146426,581.6493559672327 645.5476132146426,586.6493559672327 640.5476132146426,591.6493559672327 635.5476132146426,586.6493559672327" fill="#B006B8" stroke="black" stroke-width="0.5"/>
        <polygon points="601.2618436245065,613.6281141215526 606.2618436245065,618.6281141215526 601.2618436245065,623.6281141215526 596.2618436245065,618.6281141215526" fill="#B006B8" stroke="black" stroke-width="0.5"/>
        <polygon points="141.47871370793703,508.87467947797484 146.47871370793703,513.8746794779748 141.47871370793703,518.8746794779748 136.47871370793703,513.8746794779748" fill="#B006B8" stroke="black" stroke-width="0.5"/>
        <polygon points="642.7675640099169,552.201400429262 647.7675640099169,557.201400429262 642.7675640099169,562.201400429262 637.7675640099169,557.201400429262" fill="#B006B8" stroke="black" stroke-width="0.5"/>
        <polygon points="159.42477509384227,501.13900463963506 164.42477509384227,506.13900463963506 159.42477509384227,511.13900463963506 154.42477509384227,506.13900463963506" fill="#B006B8" stroke="black" stroke-width="0.5"/>
        <polygon points="422.5588107408272,605.016176000447 427.5588107408272,610.016176000447 422.5588107408272,615.016176000447 417.5588107408272,610.016176000447" fill="#B006B8" stroke="black" stroke-width="0.5"/>
        <polygon points="616.8328966323204,674.8656524700218 621.8328966323204,679.8656524700218 616.8328966323204,684.8656524700218 611.8328966323204,679.8656524700218" fill="#B006B8" stroke="black" stroke-width="0.5"/>
        <polygon points="606.5062796139637,644.3711814265215 611.5062796139637,649.3711814265215 606.5062796139637,654.3711814265215 601.5062796139637,649.3711814265215" fill="#B006B8" stroke="black" stroke-width="0.5"/>
        <polygon points="552.8647577973123,589.6539811338774 557.8647577973123,594.6539811338774 552.8647577973123,599.6539811338774 547.8647577973123,594.6539811338774" fill="#B006B8" stroke="black" stroke-width="0.5"/>
        <polygon points="585.193749759899,568.4402861848795 590.193749759899,573.4402861848795 585.193749759899,578.4402861848795 580.193749759899,573.4402861848795" fill="#B006B8" stroke="black" stroke-width="0.5"/>
        <polygon points="586.1900859047453,625.5199476768408 591.1900859047453,630.5199476768408 586.1900859047453,635.5199476768408 581.1900859047453,630.5199476768408" fill="#B006B8" stroke="black" stroke-width="0.5"/>
        <polygon points="441.0789873016886,640.3042062233076 446.0789873016886,645.3042062233076 441.0789873016886,650.3042062233076 436.0789873016886,645.3042062233076" fill="#B006B8" stroke="black" stroke-width="0.5"/>
        <polygon points="646.0202875631232,648.5233010231815 651.0202875631232,653.5233010231815 646.0202875631232,658.5233010231815 641.0202875631232,653.5233010231815" fill="#B006B8" stroke="black" stroke-width="0.5"/>
        <polygon points="358.94412894350796,601.917057718671 363.94412894350796,606.917057718671 358.94412894350796,611.917057718671 353.94412894350796,606.917057718671" fill="#B006B8" stroke="black" stroke-width="0.5"/>
        <polygon points="664.5513966145104,530.8872720765991 669.5513966145104,535.8872720765991 664.5513966145104,540.8872720765991 659.5513966145104,535.8872720765991" fill="#B006B8" stroke="black" stroke-width="0.5"/>
        <polygon points="853.1724002526298,578.258232828716 858.1724002526298,583.258232828716 853.1724002526298,588.258232828716 848.1724002526298,583.258232828716" fill="#B006B8" stroke="black" stroke-width="0.5"/>
      <line x1="505.61360990187404" y1="652.3518837697661" x2="515.613609901874" y2="652.3518837697661" stroke="#B006B8" stroke-width="2"/>
      <line x1="510.61360990187404" y1="647.3518837697661" x2="510.61360990187404" y2="657.3518837697661" stroke="#B006B8" stroke-width="2"/>
        <polygon points="1176.3669628201212,283.28427616212866 1181.3669628201212,288.28427616212866 1176.3669628201212,293.28427616212866 1171.3669628201212,288.28427616212866" fill="#F24CF3" stroke="black" stroke-width="0.5"/>
        <polygon points="1634.5956097756823,383.7036652119323 1639.5956097756823,388.7036652119323 1634.5956097756823,393.7036652119323 1629.5956097756823,388.7036652119323" fill="#F24CF3" stroke="black" stroke-width="0.5"/>
        <polygon points="1615.1105318212747,376.7741142255965 1620.1105318212747,381.7741142255965 1615.1105318212747,386.7741142255965 1610.1105318212747,381.7741142255965" fill="#F24CF3" stroke="black" stroke-width="0.5"/>
        <polygon points="1511.5433901659997,286.5085703780449 1516.5433901659997,291.5085703780449 1511.5433901659997,296.5085703780449 1506.5433901659997,291.5085703780449" fill="#F24CF3" stroke="black" stroke-width="0.5"/>
        <polygon points="1394.0103138746292,275.26254191319083 1399.0103138746292,280.26254191319083 1394.0103138746292,285.26254191319083 1389.0103138746292,280.26254191319083" fill="#F24CF3" stroke="black" stroke-width="0.5"/>
        <polygon points="1200.3870367208137,337.8545813637832 1205.3870367208137,342.8545813637832 1200.3870367208137,347.8545813637832 1195.3870367208137,342.8545813637832" fill="#F24CF3" stroke="black" stroke-width="0.5"/>
        <polygon points="1400.7835463183137,380.03628661268743 1405.7835463183137,385.03628661268743 1400.7835463183137,390.03628661268743 1395.7835463183137,385.03628661268743" fill="#F24CF3" stroke="black" stroke-width="0.5"/>
        <polygon points="1481.825403426132,277.41204474486165 1486.825403426132,282.41204474486165 1481.825403426132,287.41204474486165 1476.825403426132,282.41204474486165" fill="#F24CF3" stroke="black" stroke-width="0.5"/>
        <polygon points="1062.179137292787,412.29771445912365 1067.179137292787,417.29771445912365 1062.179137292787,422.29771445912365 1057.179137292787,417.29771445912365" fill="#F24CF3" stroke="black" stroke-width="0.5"/>
        <polygon points="1061.3592783957931,392.2808375574183 1066.3592783957931,397.2808375574183 1061.3592783957931,402.2808375574183 1056.3592783957931,397.2808375574183" fill="#F24CF3" stroke="black" stroke-width="0.5"/>
        <polygon points="1114.4838023950654,255.0297257660199 1119.4838023950654,260.0297257660199 1114.4838023950654,265.0297257660199 1109.4838023950654,260.0297257660199" fill="#F24CF3" stroke="black" stroke-width="0.5"/>
        <polygon points="1370.2333517176457,400.67229854675645 1375.2333517176457,405.67229854675645 1370.2333517176457,410.67229854675645 1365.2333517176457,405.67229854675645" fill="#F24CF3" stroke="black" stroke-width="0.5"/>
        <polygon points="1516.7794230974714,291.47235169168414 1521.7794230974714,296.47235169168414 1516.7794230974714,301.47235169168414 1511.7794230974714,296.47235169168414" fill="#F24CF3" stroke="black" stroke-width="0.5"/>
        <polygon points="1529.695336261344,297.4347003844802 1534.695336261344,302.4347003844802 1529.695336261344,307.4347003844802 1524.695336261344,302.4347003844802" fill="#F24CF3" stroke="black" stroke-width="0.5"/>
        <polygon points="1305.1526213786108,256.12558046953427 1310.1526213786108,261.12558046953427 1305.1526213786108,266.12558046953427 1300.1526213786108,261.12558046953427" fill="#F24CF3" stroke="black" stroke-width="0.5"/>
        <polygon points="1578.1437590290593,374.6940567243425 1583.1437590290593,379.6940567243425 1578.1437590290593,384.6940567243425 1573.1437590290593,379.6940567243425" fill="#F24CF3" stroke="black" stroke-width="0.5"/>
        <polygon points="1146.4776782248766,335.3207999079748 1151.4776782248766,340.3207999079748 1146.4776782248766,345.3207999079748 1141.4776782248766,340.3207999079748" fill="#F24CF3" stroke="black" stroke-width="0.5"/>
        <polygon points="1396.0362738969013,290.11785187410464 1401.0362738969013,295.11785187410464 1396.0362738969013,300.11785187410464 1391.0362738969013,295.11785187410464" fill="#F24CF3" stroke="black" stroke-width="0.5"/>
        <polygon points="1399.4027545354843,271.1832295334036 1404.4027545354843,276.1832295334036 1399.4027545354843,281.1832295334036 1394.4027545354843,276.1832295334036" fill="#F24CF3" stroke="black" stroke-width="0.5"/>
        <polygon points="1640.103594659933,348.9753806466804 1645.103594659933,353.9753806466804 1640.103594659933,358.9753806466804 1635.103594659933,353.9753806466804" fill="#F24CF3" stroke="black" stroke-width="0.5"/>
        <polygon points="1527.355336181568,366.8622939622443 1532.355336181568,371.8622939622443 1527.355336181568,376.8622939622443 1522.355336181568,371.8622939622443" fill="#F24CF3" stroke="black" stroke-width="0.5"/>
        <polygon points="1164.8811296289323,239.5344506193581 1169.8811296289323,244.5344506193581 1164.8811296289323,249.5344506193581 1159.8811296289323,244.5344506193581" fill="#F24CF3" stroke="black" stroke-width="0.5"/>
        <polygon points="1494.676019368208,268.77997320550406 1499.676019368208,273.77997320550406 1494.676019368208,278.77997320550406 1489.676019368208,273.77997320550406" fill="#F24CF3" stroke="black" stroke-width="0.5"/>
        <polygon points="1359.6082655022153,279.8038091819107 1364.6082655022153,284.8038091819107 1359.6082655022153,289.8038091819107 1354.6082655022153,284.8038091819107" fill="#F24CF3" stroke="black" stroke-width="0.5"/>
        <polygon points="1143.534731060106,374.560573003043 1148.534731060106,379.560573003043 1143.534731060106,384.560573003043 1138.534731060106,379.560573003043" fill="#F24CF3" stroke="black" stroke-width="0.5"/>
        <polygon points="1370.7729545333807,412.7994236597155 1375.7729545333807,417.7994236597155 1370.7729545333807,422.7994236597155 1365.7729545333807,417.7994236597155" fill="#F24CF3" stroke="black" stroke-width="0.5"/>
        <polygon points="1441.4200253188121,350.713985326645 1446.4200253188121,355.713985326645 1441.4200253188121,360.713985326645 1436.4200253188121,355.713985326645" fill="#F24CF3" stroke="black" stroke-width="0.5"/>
        <polygon points="1476.2514227740771,381.79878701457363 1481.2514227740771,386.79878701457363 1476.2514227740771,391.79878701457363 1471.2514227740771,386.79878701457363" fill="#F24CF3" stroke="black" stroke-width="0.5"/>
        <polygon points="1167.1907653690446,249.5116700454354 1172.1907653690446,254.5116700454354 1167.1907653690446,259.5116700454354 1162.1907653690446,254.5116700454354" fill="#F24CF3" stroke="black" stroke-width="0.5"/>
        <polygon points="1328.9194608460373,401.70914516746814 1333.9194608460373,406.70914516746814 1328.9194608460373,411.70914516746814 1323.9194608460373,406.70914516746814" fill="#F24CF3" stroke="black" stroke-width="0.5"/>
        <polygon points="1325.7945454932621,329.79763642787805 1330.7945454932621,334.79763642787805 1325.7945454932621,339.79763642787805 1320.7945454932621,334.79763642787805" fill="#F24CF3" stroke="black" stroke-width="0.5"/>
        <polygon points="1384.888438924501,253.40061028533853 1389.888438924501,258.40061028533853 1384.888438924501,263.40061028533853 1379.888438924501,258.40061028533853" fill="#F24CF3" stroke="black" stroke-width="0.5"/>
        <polygon points="1371.1608744042178,342.4358174721511 1376.1608744042178,347.4358174721511 1371.1608744042178,352.4358174721511 1366.1608744042178,347.4358174721511" fill="#F24CF3" stroke="black" stroke-width="0.5"/>
        <polygon points="1252.7959600221886,354.43915148097153 1257.7959600221886,359.43915148097153 1252.7959600221886,364.43915148097153 1247.7959600221886,359.43915148097153" fill="#F24CF3" stroke="black" stroke-width="0.5"/>
        <polygon points="1465.4168394051303,300.36934848459686 1470.4168394051303,305.36934848459686 1465.4168394051303,310.36934848459686 1460.4168394051303,305.36934848459686" fill="#F24CF3" stroke="black" stroke-width="0.5"/>
        <polygon points="1282.6788982454464,340.8076631743172 1287.6788982454464,345.8076631743172 1282.6788982454464,350.8076631743172 1277.6788982454464,345.8076631743172" fill="#F24CF3" stroke="black" stroke-width="0.5"/>
        <polygon points="1616.0883591198055,341.25912571422845 1621.0883591198055,346.25912571422845 1616.0883591198055,351.25912571422845 1611.0883591198055,346.25912571422845" fill="#F24CF3" stroke="black" stroke-width="0.5"/>
        <polygon points="1150.686807690211,323.47494710454686 1155.686807690211,328.47494710454686 1150.686807690211,333.47494710454686 1145.686807690211,328.47494710454686" fill="#F24CF3" stroke="black" stroke-width="0.5"/>
        <polygon points="1112.661937677793,371.47219716643815 1117.661937677793,376.47219716643815 1112.661937677793,381.47219716643815 1107.661937677793,376.47219716643815" fill="#F24CF3" stroke="black" stroke-width="0.5"/>
        <polygon points="1365.8074551933764,408.00792832217 1370.8074551933764,413.00792832217 1365.8074551933764,418.00792832217 1360.8074551933764,413.00792832217" fill="#F24CF3" stroke="black" stroke-width="0.5"/>
      <line x1="1393.673672138187" y1="272.6068489889515" x2="1403.673672138187" y2="272.6068489889515" stroke="#F24CF3" stroke-width="2"/>
      <line x1="1398.673672138187" y1="267.6068489889515" x2="1398.673672138187" y2="277.6068489889515" stroke="#F24CF3" stroke-width="2"/>
        <polygon points="1111.497911885081,200.99130151891512 1116.497911885081,205.99130151891512 1111.497911885081,210.99130151891512 1106.497911885081,205.99130151891512" fill="#7AC1D4" stroke="black" stroke-width="0.5"/>
        <polygon points="1113.754377659539,76.47697594987504 1118.754377659539,81.47697594987504 1113.754377659539,86.47697594987504 1108.754377659539,81.47697594987504" fill="#7AC1D4" stroke="black" stroke-width="0.5"/>
        <polygon points="1251.2109495854857,212.7659439413279 1256.2109495854857,217.7659439413279 1251.2109495854857,222.7659439413279 1246.2109495854857,217.7659439413279" fill="#7AC1D4" stroke="black" stroke-width="0.5"/>
        <polygon points="1258.5890890114586,190.50623675651013 1263.5890890114586,195.50623675651013 1258.5890890114586,200.50623675651013 1253.5890890114586,195.50623675651013" fill="#7AC1D4" stroke="black" stroke-width="0.5"/>
        <polygon points="1406.988017513734,210.12923833928292 1411.988017513734,215.12923833928292 1406.988017513734,220.12923833928292 1401.988017513734,215.12923833928292" fill="#7AC1D4" stroke="black" stroke-width="0.5"/>
        <polygon points="1124.9753107183549,98.87139657895284 1129.9753107183549,103.87139657895284 1124.9753107183549,108.87139657895284 1119.9753107183549,103.87139657895284" fill="#7AC1D4" stroke="black" stroke-width="0.5"/>
        <polygon points="1343.4508095087551,198.01747013762372 1348.4508095087551,203.01747013762372 1343.4508095087551,208.01747013762372 1338.4508095087551,203.01747013762372" fill="#7AC1D4" stroke="black" stroke-width="0.5"/>
        <polygon points="1144.679688744501,100.45252259927155 1149.679688744501,105.45252259927155 1144.679688744501,110.45252259927155 1139.679688744501,105.45252259927155" fill="#7AC1D4" stroke="black" stroke-width="0.5"/>
        <polygon points="1319.2849391165598,188.7271519096241 1324.2849391165598,193.7271519096241 1319.2849391165598,198.7271519096241 1314.2849391165598,193.7271519096241" fill="#7AC1D4" stroke="black" stroke-width="0.5"/>
        <polygon points="1324.6941311220635,205.28739636300003 1329.6941311220635,210.28739636300003 1324.6941311220635,215.28739636300003 1319.6941311220635,210.28739636300003" fill="#7AC1D4" stroke="black" stroke-width="0.5"/>
        <polygon points="1247.4360486178498,223.77248693663057 1252.4360486178498,228.77248693663057 1247.4360486178498,233.77248693663057 1242.4360486178498,228.77248693663057" fill="#7AC1D4" stroke="black" stroke-width="0.5"/>
        <polygon points="1085.6239734426904,109.20209457996962 1090.6239734426904,114.20209457996962 1085.6239734426904,119.20209457996962 1080.6239734426904,114.20209457996962" fill="#7AC1D4" stroke="black" stroke-width="0.5"/>
        <polygon points="1332.830168355887,192.77885146215868 1337.830168355887,197.77885146215868 1332.830168355887,202.77885146215868 1327.830168355887,197.77885146215868" fill="#7AC1D4" stroke="black" stroke-width="0.5"/>
        <polygon points="1032.29081132965,109.75762929708723 1037.29081132965,114.75762929708723 1032.29081132965,119.75762929708723 1027.29081132965,114.75762929708723" fill="#7AC1D4" stroke="black" stroke-width="0.5"/>
      <line x1="1407.8230118423403" y1="243.02011125357663" x2="1417.8230118423403" y2="243.02011125357663" stroke="#7AC1D4" stroke-width="2"/>
      <line x1="1412.8230118423403" y1="238.02011125357663" x2="1412.8230118423403" y2="248.02011125357663" stroke="#7AC1D4" stroke-width="2"/>
        <polygon points="1531.7417172690657,109.40804359908222 1536.7417172690657,114.40804359908222 1531.7417172690657,119.40804359908222 1526.7417172690657,114.40804359908222" fill="#7F5C9D" stroke="black" stroke-width="0.5"/>
        <polygon points="1580.4304630072827,107.90208985666415 1585.4304630072827,112.90208985666415 1580.4304630072827,117.90208985666415 1575.4304630072827,112.90208985666415" fill="#7F5C9D" stroke="black" stroke-width="0.5"/>
        <polygon points="1388.4613476614443,74.26207026644035 1393.4613476614443,79.26207026644035 1388.4613476614443,84.26207026644035 1383.4613476614443,79.26207026644035" fill="#7F5C9D" stroke="black" stroke-width="0.5"/>
        <polygon points="1522.3305550205778,143.3629741014086 1527.3305550205778,148.3629741014086 1522.3305550205778,153.3629741014086 1517.3305550205778,148.3629741014086" fill="#7F5C9D" stroke="black" stroke-width="0.5"/>
        <polygon points="1561.1926938571362,169.1094955491629 1566.1926938571362,174.1094955491629 1561.1926938571362,179.1094955491629 1556.1926938571362,174.1094955491629" fill="#7F5C9D" stroke="black" stroke-width="0.5"/>
        <polygon points="1510.4711621825948,202.21461338488143 1515.4711621825948,207.21461338488143 1510.4711621825948,212.21461338488143 1505.4711621825948,207.21461338488143" fill="#7F5C9D" stroke="black" stroke-width="0.5"/>
        <polygon points="1461.5256809223574,168.1777587549207 1466.5256809223574,173.1777587549207 1461.5256809223574,178.1777587549207 1456.5256809223574,173.1777587549207" fill="#7F5C9D" stroke="black" stroke-width="0.5"/>
        <polygon points="1505.4426445449412,96.68226248016524 1510.4426445449412,101.68226248016524 1505.4426445449412,106.68226248016524 1500.4426445449412,101.68226248016524" fill="#7F5C9D" stroke="black" stroke-width="0.5"/>
        <polygon points="1454.2941148625487,225.36694094886496 1459.2941148625487,230.36694094886496 1454.2941148625487,235.36694094886496 1449.2941148625487,230.36694094886496" fill="#7F5C9D" stroke="black" stroke-width="0.5"/>
        <polygon points="1591.4758323824803,226.64302240590118 1596.4758323824803,231.64302240590118 1591.4758323824803,236.64302240590118 1586.4758323824803,231.64302240590118" fill="#7F5C9D" stroke="black" stroke-width="0.5"/>
        <polygon points="1239.8430526046718,96.49329282697389 1244.8430526046718,101.49329282697389 1239.8430526046718,106.49329282697389 1234.8430526046718,101.49329282697389" fill="#7F5C9D" stroke="black" stroke-width="0.5"/>
        <polygon points="1699.756190693846,273.26505593594715 1704.756190693846,278.26505593594715 1699.756190693846,283.26505593594715 1694.756190693846,278.26505593594715" fill="#7F5C9D" stroke="black" stroke-width="0.5"/>
        <polygon points="1490.6329067705249,143.00985148468664 1495.6329067705249,148.00985148468664 1490.6329067705249,153.00985148468664 1485.6329067705249,148.00985148468664" fill="#7F5C9D" stroke="black" stroke-width="0.5"/>
        <polygon points="1670.2952613672335,240.781853955459 1675.2952613672335,245.781853955459 1670.2952613672335,250.781853955459 1665.2952613672335,245.781853955459" fill="#7F5C9D" stroke="black" stroke-width="0.5"/>
        <polygon points="1672.5498057915008,312.3643511190373 1677.5498057915008,317.3643511190373 1672.5498057915008,322.3643511190373 1667.5498057915008,317.3643511190373" fill="#7F5C9D" stroke="black" stroke-width="0.5"/>
        <polygon points="1675.1818367684848,107.87591450493612 1680.1818367684848,112.87591450493612 1675.1818367684848,117.87591450493612 1670.1818367684848,112.87591450493612" fill="#7F5C9D" stroke="black" stroke-width="0.5"/>
        <polygon points="1502.3348792721972,69.44659163391256 1507.3348792721972,74.44659163391256 1502.3348792721972,79.44659163391256 1497.3348792721972,74.44659163391256" fill="#7F5C9D" stroke="black" stroke-width="0.5"/>
        <polygon points="1340.746030464587,117.50799858076536 1345.746030464587,122.50799858076536 1340.746030464587,127.50799858076536 1335.746030464587,122.50799858076536" fill="#7F5C9D" stroke="black" stroke-width="0.5"/>
        <polygon points="1607.286845443597,-5 1612.286845443597,0 1607.286845443597,5 1602.286845443597,0" fill="#7F5C9D" stroke="black" stroke-width="0.5"/>
        <polygon points="1225.0350177573648,50.291261820654654 1230.0350177573648,55.291261820654654 1225.0350177573648,60.291261820654654 1220.0350177573648,55.291261820654654" fill="#7F5C9D" stroke="black" stroke-width="0.5"/>
        <polygon points="1823.1920473171767,360.425778118235 1828.1920473171767,365.425778118235 1823.1920473171767,370.425778118235 1818.1920473171767,365.425778118235" fill="#7F5C9D" stroke="black" stroke-width="0.5"/>
        <polygon points="1816.665976675282,323.0992961259829 1821.665976675282,328.0992961259829 1816.665976675282,333.0992961259829 1811.665976675282,328.0992961259829" fill="#7F5C9D" stroke="black" stroke-width="0.5"/>
        <polygon points="1573.094914703188,189.0139422551928 1578.094914703188,194.0139422551928 1573.094914703188,199.0139422551928 1568.094914703188,194.0139422551928" fill="#7F5C9D" stroke="black" stroke-width="0.5"/>
        <polygon points="1244.7804363808723,84.21790242238069 1249.7804363808723,89.21790242238069 1244.7804363808723,94.21790242238069 1239.7804363808723,89.21790242238069" fill="#7F5C9D" stroke="black" stroke-width="0.5"/>
        <polygon points="1698.2104019269934,315.9517275785183 1703.2104019269934,320.9517275785183 1698.2104019269934,325.9517275785183 1693.2104019269934,320.9517275785183" fill="#7F5C9D" stroke="black" stroke-width="0.5"/>
        <polygon points="1278.4221124195483,79.48733328871438 1283.4221124195483,84.48733328871438 1278.4221124195483,89.48733328871438 1273.4221124195483,84.48733328871438" fill="#7F5C9D" stroke="black" stroke-width="0.5"/>
        <polygon points="1523.1574010834838,217.09058729181407 1528.1574010834838,222.09058729181407 1523.1574010834838,227.09058729181407 1518.1574010834838,222.09058729181407" fill="#7F5C9D" stroke="black" stroke-width="0.5"/>
        <polygon points="1460.984881777058,81.78640801080427 1465.984881777058,86.78640801080427 1460.984881777058,91.78640801080427 1455.984881777058,86.78640801080427" fill="#7F5C9D" stroke="black" stroke-width="0.5"/>
        <polygon points="1735.010287514923,206.11067692930013 1740.010287514923,211.11067692930013 1735.010287514923,216.11067692930013 1730.010287514923,211.11067692930013" fill="#7F5C9D" stroke="black" stroke-width="0.5"/>
        <polygon points="1621.2688870682448,240.63294282707417 1626.2688870682448,245.63294282707417 1621.2688870682448,250.63294282707417 1616.2688870682448,245.63294282707417" fill="#7F5C9D" stroke="black" stroke-width="0.5"/>
        <polygon points="1575.6656012539108,269.7915505456783 1580.6656012539108,274.7915505456783 1575.6656012539108,279.7915505456783 1570.6656012539108,274.7915505456783" fill="#7F5C9D" stroke="black" stroke-width="0.5"/>
        <polygon points="1672.5597968078378,47.36079439086649 1677.5597968078378,52.36079439086649 1672.5597968078378,57.36079439086649 1667.5597968078378,52.36079439086649" fill="#7F5C9D" stroke="black" stroke-width="0.5"/>
        <polygon points="1732.459826713431,271.2126537154112 1737.459826713431,276.2126537154112 1732.459826713431,281.2126537154112 1727.459826713431,276.2126537154112" fill="#7F5C9D" stroke="black" stroke-width="0.5"/>
        <polygon points="1360.6120923834699,48.31194685576238 1365.6120923834699,53.31194685576238 1360.6120923834699,58.31194685576238 1355.6120923834699,53.31194685576238" fill="#7F5C9D" stroke="black" stroke-width="0.5"/>
        <polygon points="1390.0087361297449,42.127525770197344 1395.0087361297449,47.127525770197344 1390.0087361297449,52.127525770197344 1385.0087361297449,47.127525770197344" fill="#7F5C9D" stroke="black" stroke-width="0.5"/>
        <polygon points="1238.9648574428657,5.877298886651204 1243.9648574428657,10.877298886651204 1238.9648574428657,15.877298886651204 1233.9648574428657,10.877298886651204" fill="#7F5C9D" stroke="black" stroke-width="0.5"/>
        <polygon points="1768.7096462895386,5.125914865137631 1773.7096462895386,10.12591486513763 1768.7096462895386,15.12591486513763 1763.7096462895386,10.12591486513763" fill="#7F5C9D" stroke="black" stroke-width="0.5"/>
        <polygon points="1671.0716315855343,259.0669350338582 1676.0716315855343,264.0669350338582 1671.0716315855343,269.0669350338582 1666.0716315855343,264.0669350338582" fill="#7F5C9D" stroke="black" stroke-width="0.5"/>
        <polygon points="1241.9308674103543,112.78633790548055 1246.9308674103543,117.78633790548055 1241.9308674103543,122.78633790548055 1236.9308674103543,117.78633790548055" fill="#7F5C9D" stroke="black" stroke-width="0.5"/>
        <polygon points="1300.8526052484337,147.12843532693887 1305.8526052484337,152.12843532693887 1300.8526052484337,157.12843532693887 1295.8526052484337,152.12843532693887" fill="#7F5C9D" stroke="black" stroke-width="0.5"/>
        <polygon points="1739.8751617221649,168.23284928493612 1744.8751617221649,173.23284928493612 1739.8751617221649,178.23284928493612 1734.8751617221649,173.23284928493612" fill="#7F5C9D" stroke="black" stroke-width="0.5"/>
        <polygon points="1281.2987500600198,51.62977348474286 1286.2987500600198,56.62977348474286 1281.2987500600198,61.62977348474286 1276.2987500600198,56.62977348474286" fill="#7F5C9D" stroke="black" stroke-width="0.5"/>
        <polygon points="1853.8080713348218,94.71068418044837 1858.8080713348218,99.71068418044837 1853.8080713348218,104.71068418044837 1848.8080713348218,99.71068418044837" fill="#7F5C9D" stroke="black" stroke-width="0.5"/>
        <polygon points="1302.6695084627925,36.81617483023804 1307.6695084627925,41.81617483023804 1302.6695084627925,46.81617483023804 1297.6695084627925,41.81617483023804" fill="#7F5C9D" stroke="black" stroke-width="0.5"/>
        <polygon points="1801.5510681430167,336.4081840677419 1806.5510681430167,341.4081840677419 1801.5510681430167,346.4081840677419 1796.5510681430167,341.4081840677419" fill="#7F5C9D" stroke="black" stroke-width="0.5"/>
        <polygon points="1721.7311422215441,64.35243654223017 1726.7311422215441,69.35243654223017 1721.7311422215441,74.35243654223017 1716.7311422215441,69.35243654223017" fill="#7F5C9D" stroke="black" stroke-width="0.5"/>
        <polygon points="1397.5929192686096,196.4676146830719 1402.5929192686096,201.4676146830719 1397.5929192686096,206.4676146830719 1392.5929192686096,201.4676146830719" fill="#7F5C9D" stroke="black" stroke-width="0.5"/>
        <polygon points="1723.909867944194,241.18924690707047 1728.909867944194,246.18924690707047 1723.909867944194,251.18924690707047 1718.909867944194,246.18924690707047" fill="#7F5C9D" stroke="black" stroke-width="0.5"/>
        <polygon points="1415.471504266258,196.7604113252978 1420.471504266258,201.7604113252978 1415.471504266258,206.7604113252978 1410.471504266258,201.7604113252978" fill="#7F5C9D" stroke="black" stroke-width="0.5"/>
      <line x1="1464.5924057304514" y1="205.66245858275815" x2="1474.5924057304514" y2="205.66245858275815" stroke="#7F5C9D" stroke-width="2"/>
      <line x1="1469.5924057304514" y1="200.66245858275815" x2="1469.5924057304514" y2="210.66245858275815" stroke="#7F5C9D" stroke-width="2"/>
        <polygon points="1173.7540970154178,422.0569599205548 1178.7540970154178,427.0569599205548 1173.7540970154178,432.0569599205548 1168.7540970154178,427.0569599205548" fill="#D46DA8" stroke="black" stroke-width="0.5"/>
        <polygon points="1065.0179292126659,427.86408422460823 1070.0179292126659,432.86408422460823 1065.0179292126659,437.86408422460823 1060.0179292126659,432.86408422460823" fill="#D46DA8" stroke="black" stroke-width="0.5"/>
        <polygon points="1703.7086565046409,428.14394578668185 1708.7086565046409,433.14394578668185 1703.7086565046409,438.14394578668185 1698.7086565046409,433.14394578668185" fill="#D46DA8" stroke="black" stroke-width="0.5"/>
        <polygon points="1544.183928777771,413.0327563250104 1549.183928777771,418.0327563250104 1544.183928777771,423.0327563250104 1539.183928777771,418.0327563250104" fill="#D46DA8" stroke="black" stroke-width="0.5"/>
        <polygon points="1293.66032925224,455.8906405041226 1298.66032925224,460.8906405041226 1293.66032925224,465.8906405041226 1288.66032925224,460.8906405041226" fill="#D46DA8" stroke="black" stroke-width="0.5"/>
        <polygon points="1764.4174235934343,436.6757143207447 1769.4174235934343,441.6757143207447 1764.4174235934343,446.6757143207447 1759.4174235934343,441.6757143207447" fill="#D46DA8" stroke="black" stroke-width="0.5"/>
        <polygon points="1158.9465537178826,444.12392983192075 1163.9465537178826,449.12392983192075 1158.9465537178826,454.12392983192075 1153.9465537178826,449.12392983192075" fill="#D46DA8" stroke="black" stroke-width="0.5"/>
        <polygon points="1314.8906542540576,590.7422776728631 1319.8906542540576,595.7422776728631 1314.8906542540576,600.7422776728631 1309.8906542540576,595.7422776728631" fill="#D46DA8" stroke="black" stroke-width="0.5"/>
        <polygon points="1395.3737263465136,605.1377946181296 1400.3737263465136,610.1377946181296 1395.3737263465136,615.1377946181296 1390.3737263465136,610.1377946181296" fill="#D46DA8" stroke="black" stroke-width="0.5"/>
        <polygon points="1427.7512298195202,643.2206601385772 1432.7512298195202,648.2206601385772 1427.7512298195202,653.2206601385772 1422.7512298195202,648.2206601385772" fill="#D46DA8" stroke="black" stroke-width="0.5"/>
        <polygon points="1490.9182944269292,608.9857484214921 1495.9182944269292,613.9857484214921 1490.9182944269292,618.9857484214921 1485.9182944269292,613.9857484214921" fill="#D46DA8" stroke="black" stroke-width="0.5"/>
        <polygon points="1587.87289890896,637.051696495685 1592.87289890896,642.051696495685 1587.87289890896,647.051696495685 1582.87289890896,642.051696495685" fill="#D46DA8" stroke="black" stroke-width="0.5"/>
        <polygon points="1661.857695051935,610.2522803243476 1666.857695051935,615.2522803243476 1661.857695051935,620.2522803243476 1656.857695051935,615.2522803243476" fill="#D46DA8" stroke="black" stroke-width="0.5"/>
        <polygon points="1536.1970505283064,603.3608232797108 1541.1970505283064,608.3608232797108 1536.1970505283064,613.3608232797108 1531.1970505283064,608.3608232797108" fill="#D46DA8" stroke="black" stroke-width="0.5"/>
        <polygon points="1845.896361325031,494.49979394988867 1850.896361325031,499.49979394988867 1845.896361325031,504.49979394988867 1840.896361325031,499.49979394988867" fill="#D46DA8" stroke="black" stroke-width="0.5"/>
        <polygon points="1529.9970273225656,648.9347249764438 1534.9970273225656,653.9347249764438 1529.9970273225656,658.9347249764438 1524.9970273225656,653.9347249764438" fill="#D46DA8" stroke="black" stroke-width="0.5"/>
        <polygon points="1513.6429076625031,482.67785567906805 1518.6429076625031,487.67785567906805 1513.6429076625031,492.67785567906805 1508.6429076625031,487.67785567906805" fill="#D46DA8" stroke="black" stroke-width="0.5"/>
      <line x1="1425.1535770465957" y1="561.6502537467015" x2="1435.1535770465957" y2="561.6502537467015" stroke="#D46DA8" stroke-width="2"/>
      <line x1="1430.1535770465957" y1="556.6502537467015" x2="1430.1535770465957" y2="566.6502537467015" stroke="#D46DA8" stroke-width="2"/>
        <polygon points="1687.6615369552928,802.1003338718637 1692.6615369552928,807.1003338718637 1687.6615369552928,812.1003338718637 1682.6615369552928,807.1003338718637" fill="#492F51" stroke="black" stroke-width="0.5"/>
        <polygon points="1829.5232631016263,953.0240062950214 1834.5232631016263,958.0240062950214 1829.5232631016263,963.0240062950214 1824.5232631016263,958.0240062950214" fill="#492F51" stroke="black" stroke-width="0.5"/>
        <polygon points="1627.2568744208418,903.9663440582437 1632.2568744208418,908.9663440582437 1627.2568744208418,913.9663440582437 1622.2568744208418,908.9663440582437" fill="#492F51" stroke="black" stroke-width="0.5"/>
        <polygon points="1718.1831745748477,896.9347759146482 1723.1831745748477,901.9347759146482 1718.1831745748477,906.9347759146482 1713.1831745748477,901.9347759146482" fill="#492F51" stroke="black" stroke-width="0.5"/>
        <polygon points="1681.261886042973,894.1890822055753 1686.261886042973,899.1890822055753 1681.261886042973,904.1890822055753 1676.261886042973,899.1890822055753" fill="#492F51" stroke="black" stroke-width="0.5"/>
        <polygon points="1490.0711204610102,667.2986368346284 1495.0711204610102,672.2986368346284 1490.0711204610102,677.2986368346284 1485.0711204610102,672.2986368346284" fill="#492F51" stroke="black" stroke-width="0.5"/>
        <polygon points="1791.4209433839558,889.5024612107823 1796.4209433839558,894.5024612107823 1791.4209433839558,899.5024612107823 1786.4209433839558,894.5024612107823" fill="#492F51" stroke="black" stroke-width="0.5"/>
        <polygon points="1547.6676629753629,663.8008049620981 1552.6676629753629,668.8008049620981 1547.6676629753629,673.8008049620981 1542.6676629753629,668.8008049620981" fill="#492F51" stroke="black" stroke-width="0.5"/>
        <polygon points="1757.4919158012033,775.4033759001622 1762.4919158012033,780.4033759001622 1757.4919158012033,785.4033759001622 1752.4919158012033,780.4033759001622" fill="#492F51" stroke="black" stroke-width="0.5"/>
        <polygon points="1739.952018741438,879.9333706459912 1744.952018741438,884.9333706459912 1739.952018741438,889.9333706459912 1734.952018741438,884.9333706459912" fill="#492F51" stroke="black" stroke-width="0.5"/>
        <polygon points="1505.9728229521838,729.6053340098779 1510.9728229521838,734.6053340098779 1505.9728229521838,739.6053340098779 1500.9728229521838,734.6053340098779" fill="#492F51" stroke="black" stroke-width="0.5"/>
        <polygon points="1710.8351649137833,856.3317794207281 1715.8351649137833,861.3317794207281 1710.8351649137833,866.3317794207281 1705.8351649137833,861.3317794207281" fill="#492F51" stroke="black" stroke-width="0.5"/>
        <polygon points="1631.999848475388,811.8184667187413 1636.999848475388,816.8184667187413 1631.999848475388,821.8184667187413 1626.999848475388,816.8184667187413" fill="#492F51" stroke="black" stroke-width="0.5"/>
        <polygon points="1758.2300498338432,632.3998586420261 1763.2300498338432,637.3998586420261 1758.2300498338432,642.3998586420261 1753.2300498338432,637.3998586420261" fill="#492F51" stroke="black" stroke-width="0.5"/>
        <polygon points="1693.5276843441954,642.8503508269916 1698.5276843441954,647.8503508269916 1693.5276843441954,652.8503508269916 1688.5276843441954,647.8503508269916" fill="#492F51" stroke="black" stroke-width="0.5"/>
        <polygon points="1508.2893229057781,723.6821916513618 1513.2893229057781,728.6821916513618 1508.2893229057781,733.6821916513618 1503.2893229057781,728.6821916513618" fill="#492F51" stroke="black" stroke-width="0.5"/>
        <polygon points="1845.8082805091879,914.6845293207672 1850.8082805091879,919.6845293207672 1845.8082805091879,924.6845293207672 1840.8082805091879,919.6845293207672" fill="#492F51" stroke="black" stroke-width="0.5"/>
        <polygon points="1689.7054312693729,634.1905077980246 1694.7054312693729,639.1905077980246 1689.7054312693729,644.1905077980246 1684.7054312693729,639.1905077980246" fill="#492F51" stroke="black" stroke-width="0.5"/>
        <polygon points="1710.8030493355247,678.7731204806489 1715.8030493355247,683.7731204806489 1710.8030493355247,688.7731204806489 1705.8030493355247,683.7731204806489" fill="#492F51" stroke="black" stroke-width="0.5"/>
        <polygon points="1585.7533600522752,788.6412085046126 1590.7533600522752,793.6412085046126 1585.7533600522752,798.6412085046126 1580.7533600522752,793.6412085046126" fill="#492F51" stroke="black" stroke-width="0.5"/>
        <polygon points="1775.3280273442986,699.7133455339168 1780.3280273442986,704.7133455339168 1775.3280273442986,709.7133455339168 1770.3280273442986,704.7133455339168" fill="#492F51" stroke="black" stroke-width="0.5"/>
        <polygon points="1765.9838161731373,808.8929708278814 1770.9838161731373,813.8929708278814 1765.9838161731373,818.8929708278814 1760.9838161731373,813.8929708278814" fill="#492F51" stroke="black" stroke-width="0.5"/>
        <polygon points="1741.1278980616469,801.781819238912 1746.1278980616469,806.781819238912 1741.1278980616469,811.781819238912 1736.1278980616469,806.781819238912" fill="#492F51" stroke="black" stroke-width="0.5"/>
        <polygon points="1682.4393932102384,727.8358376304988 1687.4393932102384,732.8358376304988 1682.4393932102384,737.8358376304988 1677.4393932102384,732.8358376304988" fill="#492F51" stroke="black" stroke-width="0.5"/>
        <polygon points="1920,886.9116644254846 1925,891.9116644254846 1920,896.9116644254846 1915,891.9116644254846" fill="#492F51" stroke="black" stroke-width="0.5"/>
        <polygon points="1828.7261060327319,649.8009285709212 1833.7261060327319,654.8009285709212 1828.7261060327319,659.8009285709212 1823.7261060327319,654.8009285709212" fill="#492F51" stroke="black" stroke-width="0.5"/>
        <polygon points="1803.0025881817655,874.0433759006855 1808.0025881817655,879.0433759006855 1803.0025881817655,884.0433759006855 1798.0025881817655,879.0433759006855" fill="#492F51" stroke="black" stroke-width="0.5"/>
        <polygon points="1794.171631646968,658.5584831774577 1799.171631646968,663.5584831774577 1794.171631646968,668.5584831774577 1789.171631646968,663.5584831774577" fill="#492F51" stroke="black" stroke-width="0.5"/>
        <polygon points="1704.791840764931,732.3494407699287 1709.791840764931,737.3494407699287 1704.791840764931,742.3494407699287 1699.791840764931,737.3494407699287" fill="#492F51" stroke="black" stroke-width="0.5"/>
        <polygon points="1829.8016121581059,659.2117412952399 1834.8016121581059,664.2117412952399 1829.8016121581059,669.2117412952399 1824.8016121581059,664.2117412952399" fill="#492F51" stroke="black" stroke-width="0.5"/>
        <polygon points="1880.160847101148,608.8180106201502 1885.160847101148,613.8180106201502 1880.160847101148,618.8180106201502 1875.160847101148,613.8180106201502" fill="#492F51" stroke="black" stroke-width="0.5"/>
        <polygon points="1757.9508903848566,708.8900943431803 1762.9508903848566,713.8900943431803 1757.9508903848566,718.8900943431803 1752.9508903848566,713.8900943431803" fill="#492F51" stroke="black" stroke-width="0.5"/>
        <polygon points="1577.5866998605995,709.6279387137226 1582.5866998605995,714.6279387137226 1577.5866998605995,719.6279387137226 1572.5866998605995,714.6279387137226" fill="#492F51" stroke="black" stroke-width="0.5"/>
        <polygon points="1833.616273250789,802.6152576397488 1838.616273250789,807.6152576397488 1833.616273250789,812.6152576397488 1828.616273250789,807.6152576397488" fill="#492F51" stroke="black" stroke-width="0.5"/>
        <polygon points="1601.1454440380637,746.1794954628471 1606.1454440380637,751.1794954628471 1601.1454440380637,756.1794954628471 1596.1454440380637,751.1794954628471" fill="#492F51" stroke="black" stroke-width="0.5"/>
        <polygon points="1511.521394759193,745.2863737009441 1516.521394759193,750.2863737009441 1511.521394759193,755.2863737009441 1506.521394759193,750.2863737009441" fill="#492F51" stroke="black" stroke-width="0.5"/>
        <polygon points="1649.7889776648185,808.2197014353751 1654.7889776648185,813.2197014353751 1649.7889776648185,818.2197014353751 1644.7889776648185,813.2197014353751" fill="#492F51" stroke="black" stroke-width="0.5"/>
        <polygon points="1719.3026301637121,897.6861225125951 1724.3026301637121,902.6861225125951 1719.3026301637121,907.6861225125951 1714.3026301637121,902.6861225125951" fill="#492F51" stroke="black" stroke-width="0.5"/>
        <polygon points="1820.836334582713,627.8457659822026 1825.836334582713,632.8457659822026 1820.836334582713,637.8457659822026 1815.836334582713,632.8457659822026" fill="#492F51" stroke="black" stroke-width="0.5"/>
      <line x1="1514.091191479015" y1="770.9655721249674" x2="1524.091191479015" y2="770.9655721249674" stroke="#492F51" stroke-width="2"/>
      <line x1="1519.091191479015" y1="765.9655721249674" x2="1519.091191479015" y2="775.9655721249674" stroke="#492F51" stroke-width="2"/>
        <polygon points="1537.6304188298404,810.2073167867243 1542.6304188298404,815.2073167867243 1537.6304188298404,820.2073167867243 1532.6304188298404,815.2073167867243" fill="#68D4F1" stroke="black" stroke-width="0.5"/>
        <polygon points="1457.1248885958794,739.8932832241925 1462.1248885958794,744.8932832241925 1457.1248885958794,749.8932832241925 1452.1248885958794,744.8932832241925" fill="#68D4F1" stroke="black" stroke-width="0.5"/>
      <line x1="1503.14106764662" y1="773.8259251833634" x2="1513.14106764662" y2="773.8259251833634" stroke="#68D4F1" stroke-width="2"/>
      <line x1="1508.14106764662" y1="768.8259251833634" x2="1508.14106764662" y2="778.8259251833634" stroke="#68D4F1" stroke-width="2"/>
        <polygon points="1418.644647914487,770.6674059133103 1423.644647914487,775.6674059133103 1418.644647914487,780.6674059133103 1413.644647914487,775.6674059133103" fill="#F7E442" stroke="black" stroke-width="0.5"/>
        <polygon points="1331.1229398743667,789.6995665070153 1336.1229398743667,794.6995665070153 1331.1229398743667,799.6995665070153 1326.1229398743667,794.6995665070153" fill="#F7E442" stroke="black" stroke-width="0.5"/>
        <polygon points="1423.9323632172034,937.6217050496987 1428.9323632172034,942.6217050496987 1423.9323632172034,947.6217050496987 1418.9323632172034,942.6217050496987" fill="#F7E442" stroke="black" stroke-width="0.5"/>
        <polygon points="1335.227369748398,757.3965464184023 1340.227369748398,762.3965464184023 1335.227369748398,767.3965464184023 1330.227369748398,762.3965464184023" fill="#F7E442" stroke="black" stroke-width="0.5"/>
        <polygon points="1212.1084715646662,891.0099471723169 1217.1084715646662,896.0099471723169 1212.1084715646662,901.0099471723169 1207.1084715646662,896.0099471723169" fill="#F7E442" stroke="black" stroke-width="0.5"/>
        <polygon points="1200.9424455891863,842.917410378331 1205.9424455891863,847.917410378331 1200.9424455891863,852.917410378331 1195.9424455891863,847.917410378331" fill="#F7E442" stroke="black" stroke-width="0.5"/>
        <polygon points="1344.5138599777122,928.1911548993944 1349.5138599777122,933.1911548993944 1344.5138599777122,938.1911548993944 1339.5138599777122,933.1911548993944" fill="#F7E442" stroke="black" stroke-width="0.5"/>
        <polygon points="1549.0394250001984,968.7790895918957 1554.0394250001984,973.7790895918957 1549.0394250001984,978.7790895918957 1544.0394250001984,973.7790895918957" fill="#F7E442" stroke="black" stroke-width="0.5"/>
        <polygon points="1483.3509266988267,844.9118111703843 1488.3509266988267,849.9118111703843 1483.3509266988267,854.9118111703843 1478.3509266988267,849.9118111703843" fill="#F7E442" stroke="black" stroke-width="0.5"/>
        <polygon points="1376.1755706936412,764.2918870636355 1381.1755706936412,769.2918870636355 1376.1755706936412,774.2918870636355 1371.1755706936412,769.2918870636355" fill="#F7E442" stroke="black" stroke-width="0.5"/>
        <polygon points="1381.2802859364826,766.8995461399521 1386.2802859364826,771.8995461399521 1381.2802859364826,776.8995461399521 1376.2802859364826,771.8995461399521" fill="#F7E442" stroke="black" stroke-width="0.5"/>
        <polygon points="1337.4637309234238,974.642816254957 1342.4637309234238,979.642816254957 1337.4637309234238,984.642816254957 1332.4637309234238,979.642816254957" fill="#F7E442" stroke="black" stroke-width="0.5"/>
        <polygon points="1398.942093647971,911.5509704413363 1403.942093647971,916.5509704413363 1398.942093647971,921.5509704413363 1393.942093647971,916.5509704413363" fill="#F7E442" stroke="black" stroke-width="0.5"/>
        <polygon points="1377.1023774391376,819.6018609015993 1382.1023774391376,824.6018609015993 1377.1023774391376,829.6018609015993 1372.1023774391376,824.6018609015993" fill="#F7E442" stroke="black" stroke-width="0.5"/>
        <polygon points="1245.88053891749,947.0145047375661 1250.88053891749,952.0145047375661 1245.88053891749,957.0145047375661 1240.88053891749,952.0145047375661" fill="#F7E442" stroke="black" stroke-width="0.5"/>
        <polygon points="1438.3205560434776,846.237687280279 1443.3205560434776,851.237687280279 1438.3205560434776,856.237687280279 1433.3205560434776,851.237687280279" fill="#F7E442" stroke="black" stroke-width="0.5"/>
        <polygon points="1268.8106442462342,844.7560822148063 1273.8106442462342,849.7560822148063 1268.8106442462342,854.7560822148063 1263.8106442462342,849.7560822148063" fill="#F7E442" stroke="black" stroke-width="0.5"/>
        <polygon points="1521.0918770896985,969.2172652127066 1526.0918770896985,974.2172652127066 1521.0918770896985,979.2172652127066 1516.0918770896985,974.2172652127066" fill="#F7E442" stroke="black" stroke-width="0.5"/>
        <polygon points="1507.6963211509092,959.2883132225272 1512.6963211509092,964.2883132225272 1507.6963211509092,969.2883132225272 1502.6963211509092,964.2883132225272" fill="#F7E442" stroke="black" stroke-width="0.5"/>
        <polygon points="1356.740910396909,731.9033131713361 1361.740910396909,736.9033131713361 1356.740910396909,741.9033131713361 1351.740910396909,736.9033131713361" fill="#F7E442" stroke="black" stroke-width="0.5"/>
        <polygon points="1428.7326376158112,979.1193958319626 1433.7326376158112,984.1193958319626 1428.7326376158112,989.1193958319626 1423.7326376158112,984.1193958319626" fill="#F7E442" stroke="black" stroke-width="0.5"/>
        <polygon points="1430.1754603475588,788.1290591540148 1435.1754603475588,793.1290591540148 1430.1754603475588,798.1290591540148 1425.1754603475588,793.1290591540148" fill="#F7E442" stroke="black" stroke-width="0.5"/>
        <polygon points="1569.879995077161,976.498585690976 1574.879995077161,981.498585690976 1569.879995077161,986.498585690976 1564.879995077161,981.498585690976" fill="#F7E442" stroke="black" stroke-width="0.5"/>
        <polygon points="1287.6550040893196,848.3789006115989 1292.6550040893196,853.3789006115989 1287.6550040893196,858.3789006115989 1282.6550040893196,853.3789006115989" fill="#F7E442" stroke="black" stroke-width="0.5"/>
        <polygon points="1358.0391704343015,774.5291446434584 1363.0391704343015,779.5291446434584 1358.0391704343015,784.5291446434584 1353.0391704343015,779.5291446434584" fill="#F7E442" stroke="black" stroke-width="0.5"/>
        <polygon points="1305.1873532789064,856.0072931962418 1310.1873532789064,861.0072931962418 1305.1873532789064,866.0072931962418 1300.1873532789064,861.0072931962418" fill="#F7E442" stroke="black" stroke-width="0.5"/>
        <polygon points="1384.0867126643705,881.072199613793 1389.0867126643705,886.072199613793 1384.0867126643705,891.072199613793 1379.0867126643705,886.072199613793" fill="#F7E442" stroke="black" stroke-width="0.5"/>
        <polygon points="1276.740081048952,902.4441179060813 1281.740081048952,907.4441179060813 1276.740081048952,912.4441179060813 1271.740081048952,907.4441179060813" fill="#F7E442" stroke="black" stroke-width="0.5"/>
        <polygon points="1311.7587914514972,790.2724556493703 1316.7587914514972,795.2724556493703 1311.7587914514972,800.2724556493703 1306.7587914514972,795.2724556493703" fill="#F7E442" stroke="black" stroke-width="0.5"/>
        <polygon points="1530.4133308176579,890.8746901625464 1535.4133308176579,895.8746901625464 1530.4133308176579,900.8746901625464 1525.4133308176579,895.8746901625464" fill="#F7E442" stroke="black" stroke-width="0.5"/>
        <polygon points="1709.1371684114554,1055.8755802193668 1714.1371684114554,1060.8755802193668 1709.1371684114554,1065.8755802193668 1704.1371684114554,1060.8755802193668" fill="#F7E442" stroke="black" stroke-width="0.5"/>
        <polygon points="1260.00433371909,929.8918839190662 1265.00433371909,934.8918839190662 1260.00433371909,939.8918839190662 1255.00433371909,934.8918839190662" fill="#F7E442" stroke="black" stroke-width="0.5"/>
        <polygon points="1377.6130563968711,851.7529629442995 1382.6130563968711,856.7529629442995 1377.6130563968711,861.7529629442995 1372.6130563968711,856.7529629442995" fill="#F7E442" stroke="black" stroke-width="0.5"/>
        <polygon points="1212.2954044591622,1075 1217.2954044591622,1080 1212.2954044591622,1085 1207.2954044591622,1080" fill="#F7E442" stroke="black" stroke-width="0.5"/>
        <polygon points="1646.43959074106,1063.803897218346 1651.43959074106,1068.803897218346 1646.43959074106,1073.803897218346 1641.43959074106,1068.803897218346" fill="#F7E442" stroke="black" stroke-width="0.5"/>
        <polygon points="1462.5914606466279,837.9586002515045 1467.5914606466279,842.9586002515045 1462.5914606466279,847.9586002515045 1457.5914606466279,842.9586002515045" fill="#F7E442" stroke="black" stroke-width="0.5"/>
      <line x1="1430.8514857263997" y1="796.7478368644156" x2="1440.8514857263997" y2="796.7478368644156" stroke="#F7E442" stroke-width="2"/>
      <line x1="1435.8514857263997" y1="791.7478368644156" x2="1435.8514857263997" y2="801.7478368644156" stroke="#F7E442" stroke-width="2"/>
        <polygon points="1175.0202652671837,761.8759569408162 1180.0202652671837,766.8759569408162 1175.0202652671837,771.8759569408162 1170.0202652671837,766.8759569408162" fill="#67FBE7" stroke="black" stroke-width="0.5"/>
        <polygon points="1349.9835297453526,712.0428283876585 1354.9835297453526,717.0428283876585 1349.9835297453526,722.0428283876585 1344.9835297453526,717.0428283876585" fill="#67FBE7" stroke="black" stroke-width="0.5"/>
        <polygon points="1204.1502993709273,597.0372361110147 1209.1502993709273,602.0372361110147 1204.1502993709273,607.0372361110147 1199.1502993709273,602.0372361110147" fill="#67FBE7" stroke="black" stroke-width="0.5"/>
        <polygon points="1354.2277337789546,697.4063598374618 1359.2277337789546,702.4063598374618 1354.2277337789546,707.4063598374618 1349.2277337789546,702.4063598374618" fill="#67FBE7" stroke="black" stroke-width="0.5"/>
        <polygon points="1369.5994368163274,671.6145402493386 1374.5994368163274,676.6145402493386 1369.5994368163274,681.6145402493386 1364.5994368163274,676.6145402493386" fill="#67FBE7" stroke="black" stroke-width="0.5"/>
        <polygon points="1307.8130163228354,691.8841789875505 1312.8130163228354,696.8841789875505 1307.8130163228354,701.8841789875505 1302.8130163228354,696.8841789875505" fill="#67FBE7" stroke="black" stroke-width="0.5"/>
        <polygon points="1249.1371331197888,679.296888935236 1254.1371331197888,684.296888935236 1249.1371331197888,689.296888935236 1244.1371331197888,684.296888935236" fill="#67FBE7" stroke="black" stroke-width="0.5"/>
        <polygon points="1163.41589647078,663.3041296523999 1168.41589647078,668.3041296523999 1163.41589647078,673.3041296523999 1158.41589647078,668.3041296523999" fill="#67FBE7" stroke="black" stroke-width="0.5"/>
        <polygon points="1190.4043055492737,630.2249481958297 1195.4043055492737,635.2249481958297 1190.4043055492737,640.2249481958297 1185.4043055492737,635.2249481958297" fill="#67FBE7" stroke="black" stroke-width="0.5"/>
        <polygon points="1341.8388240898612,734.330705445931 1346.8388240898612,739.330705445931 1341.8388240898612,744.330705445931 1336.8388240898612,739.330705445931" fill="#67FBE7" stroke="black" stroke-width="0.5"/>
        <polygon points="1313.1196254870122,744.0066759534542 1318.1196254870122,749.0066759534542 1313.1196254870122,754.0066759534542 1308.1196254870122,749.0066759534542" fill="#67FBE7" stroke="black" stroke-width="0.5"/>
        <polygon points="1350.3564910223524,678.0453327699554 1355.3564910223524,683.0453327699554 1350.3564910223524,688.0453327699554 1345.3564910223524,683.0453327699554" fill="#67FBE7" stroke="black" stroke-width="0.5"/>
        <polygon points="1274.7866300609721,770.5166851097121 1279.7866300609721,775.5166851097121 1274.7866300609721,780.5166851097121 1269.7866300609721,775.5166851097121" fill="#67FBE7" stroke="black" stroke-width="0.5"/>
        <polygon points="1314.00242431332,709.3324871373754 1319.00242431332,714.3324871373754 1314.00242431332,719.3324871373754 1309.00242431332,714.3324871373754" fill="#67FBE7" stroke="black" stroke-width="0.5"/>
        <polygon points="1233.366031913151,747.1967939120143 1238.366031913151,752.1967939120143 1233.366031913151,757.1967939120143 1228.366031913151,752.1967939120143" fill="#67FBE7" stroke="black" stroke-width="0.5"/>
        <polygon points="1307.268850555016,744.4981992139016 1312.268850555016,749.4981992139016 1307.268850555016,754.4981992139016 1302.268850555016,749.4981992139016" fill="#67FBE7" stroke="black" stroke-width="0.5"/>
        <polygon points="1329.9590384759272,696.8577706215324 1334.9590384759272,701.8577706215324 1329.9590384759272,706.8577706215324 1324.9590384759272,701.8577706215324" fill="#67FBE7" stroke="black" stroke-width="0.5"/>
        <polygon points="1210.792230494934,759.279416351977 1215.792230494934,764.279416351977 1210.792230494934,769.279416351977 1205.792230494934,764.279416351977" fill="#67FBE7" stroke="black" stroke-width="0.5"/>
      <line x1="1234.3429572714435" y1="697.6526768453712" x2="1244.3429572714435" y2="697.6526768453712" stroke="#67FBE7" stroke-width="2"/>
      <line x1="1239.3429572714435" y1="692.6526768453712" x2="1239.3429572714435" y2="702.6526768453712" stroke="#67FBE7" stroke-width="2"/>
</svg>